<?xml version="1.0" encoding="utf-8"?>
<!-- Generator: Adobe Illustrator 27.2.0, SVG Export Plug-In . SVG Version: 6.00 Build 0)  -->
<svg version="1.1" id="Layer_1" xmlns="http://www.w3.org/2000/svg" xmlns:xlink="http://www.w3.org/1999/xlink" x="0px" y="0px"
	 viewBox="0 0 507.5 424" style="enable-background:new 0 0 507.5 424;" xml:space="preserve">
<style type="text/css">
	.st0{fill:#6B739B;}
	.st1{fill:#7D86BA;}
	.st2{fill:#FFFFFF;}
	.st3{fill:#7D88BC;}
	.st4{fill:#34B7BF;}
	.st5{opacity:0.45;}
	.st6{fill:#38419D;}
	.st7{fill:#F0B48F;}
	.st8{fill:#313440;}
	.st9{fill:#88442B;}
	.st10{fill:#E2E2EC;}
	.st11{fill:#FCB033;}
	.st12{fill:#DDA583;}
	.st13{fill:#FFAE4D;}
	.st14{fill:#545E7D;}
	.st15{fill:#F15A28;}
	.st16{fill:#8FA159;}
	.st17{fill:#B0C66B;}
	.st18{fill:#E3E4EE;}
</style>
<g>
	<g id="Layer_2_00000111165123023872053260000014132176989282011306_">
		<g id="Layer_1-2">
			<g>
				<g>
					<g>
						<rect x="272.9" y="359.6" class="st0" width="84.7" height="55.9"/>
						<path class="st1" d="M135.9,114.6h358.7c2.8,0,5,2.2,5,5v241c0,2.8-2.2,5-5,5H135.9c-2.8,0-5-2.2-5-5v-241
							C130.9,116.9,133.1,114.6,135.9,114.6z"/>
						<rect x="135.7" y="123.7" class="st2" width="358.7" height="225"/>
						<path class="st1" d="M373.4,406.6H257.2c-7.6,0-13.9,6.2-13.9,13.9v2.2h143.9v-2.2C387.2,412.8,381,406.6,373.4,406.6z"/>
					</g>
					<g>
						<g>
							<g>
								<g>
									<g>
										<path class="st3" d="M303.4,145.6v50.9c0,0.8-0.6,1.6-1.5,1.6s-1.5-0.7-1.5-1.6v-50.8c0-0.8,0.7-1.6,1.5-1.6
											S303.4,144.8,303.4,145.6L303.4,145.6z"/>
										<path class="st3" d="M309.7,138.7c0,4.6-3.7,8.2-8.2,8.2s-8.2-3.7-8.2-8.2s3.7-8.2,8.2-8.2S309.7,134.2,309.7,138.7z
											 M296.3,138.7c0,2.9,2.3,5.1,5.1,5.1s5.1-2.3,5.1-5.1s-2.3-5.1-5.1-5.1C298.6,133.6,296.3,135.9,296.3,138.7z"/>
									</g>
									<g>
										<path class="st3" d="M330.7,145.6v50.9c0,0.8-0.6,1.6-1.5,1.6s-1.5-0.7-1.5-1.6v-50.8c0-0.8,0.7-1.6,1.5-1.6
											S330.7,144.8,330.7,145.6L330.7,145.6z"/>
										<path class="st3" d="M337,138.7c0,4.6-3.7,8.2-8.2,8.2s-8.2-3.7-8.2-8.2s3.7-8.2,8.2-8.2S337,134.2,337,138.7z
											 M323.6,138.7c0,2.9,2.3,5.1,5.1,5.1s5.1-2.3,5.1-5.1s-2.3-5.1-5.1-5.1C325.9,133.6,323.6,135.9,323.6,138.7z"/>
									</g>
								</g>
								<g>
									<g>
										<path class="st3" d="M234.4,251.4h51c0.8,0,1.5,0.6,1.5,1.6s-0.7,1.6-1.5,1.6h-50.9c-0.8,0-1.6-0.7-1.6-1.6
											S233.6,251.4,234.4,251.4L234.4,251.4z"/>
										<path class="st3" d="M227.6,245.1c4.6,0,8.3,3.7,8.3,8.2c0,4.6-3.7,8.2-8.3,8.2s-8.2-3.7-8.2-8.2S223.1,245.1,227.6,245.1
											L227.6,245.1z M227.6,258.5c2.9,0,5.1-2.3,5.1-5.1s-2.3-5.1-5.1-5.1s-5.1,2.3-5.1,5.1S224.8,258.5,227.6,258.5z"/>
									</g>
									<g>
										<path class="st3" d="M234.4,224.1h51c0.8,0,1.5,0.6,1.5,1.6s-0.7,1.6-1.5,1.6h-50.9c-0.8,0-1.6-0.7-1.6-1.6
											S233.6,224.1,234.4,224.1L234.4,224.1z"/>
										<path class="st3" d="M227.6,217.9c4.6,0,8.3,3.7,8.3,8.2s-3.7,8.2-8.3,8.2s-8.2-3.7-8.2-8.2S223.1,217.9,227.6,217.9z
											 M227.6,231.2c2.9,0,5.1-2.3,5.1-5.1s-2.3-5.1-5.1-5.1s-5.1,2.3-5.1,5.1S224.8,231.2,227.6,231.2z"/>
									</g>
								</g>
								<g>
									<g>
										<path class="st3" d="M396.1,255.3h-51c-0.8,0-1.5-0.6-1.5-1.6s0.7-1.6,1.5-1.6H396c0.8,0,1.5,0.7,1.5,1.6
											S396.9,255.3,396.1,255.3L396.1,255.3z"/>
										<path class="st3" d="M402.9,261.6c-4.6,0-8.2-3.7-8.2-8.2s3.7-8.2,8.2-8.2s8.2,3.7,8.2,8.2S407.4,261.6,402.9,261.6z
											 M402.9,248.2c-2.9,0-5.1,2.3-5.1,5.1s2.3,5.1,5.1,5.1s5.1-2.3,5.1-5.1S405.7,248.2,402.9,248.2z"/>
									</g>
									<g>
										<path class="st3" d="M396.1,228.1h-51c-0.8,0-1.5-0.6-1.5-1.6s0.7-1.6,1.5-1.6H396c0.8,0,1.5,0.7,1.5,1.6
											S396.9,228.1,396.1,228.1L396.1,228.1z"/>
										<path class="st3" d="M402.9,234.3c-4.6,0-8.2-3.7-8.2-8.2s3.7-8.2,8.2-8.2s8.2,3.7,8.2,8.2S407.4,234.3,402.9,234.3z
											 M402.9,220.9c-2.9,0-5.1,2.3-5.1,5.1s2.3,5.1,5.1,5.1s5.1-2.3,5.1-5.1S405.7,220.9,402.9,220.9z"/>
									</g>
								</g>
							</g>
							<g>
								<ellipse class="st2" cx="315.3" cy="236.1" rx="58.3" ry="58.3"/>
								<path class="st3" d="M315.3,296.5c-33.3,0-60.5-27.1-60.5-60.4s27.1-60.4,60.5-60.4s60.5,27.1,60.5,60.4
									S348.6,296.5,315.3,296.5z M315.3,180c-31,0-56.1,25.2-56.1,56.1s25.2,56.1,56.1,56.1s56.1-25.2,56.1-56.1
									S346.2,180,315.3,180z"/>
							</g>
						</g>
						<g>
							<path class="st3" d="M293.1,276c-8.4-5.1-11-16.1-5.9-24.4c5.1-8.4,16.1-11,24.4-5.9c8.4,5.1,11,16.1,5.9,24.4
								C312.5,278.5,301.5,281.1,293.1,276L293.1,276z M295.9,271.6c5.9,3.6,13.7,1.7,17.3-4.2s1.7-13.7-4.2-17.3
								c-5.9-3.6-13.7-1.7-17.3,4.2C288,260.2,289.9,268,295.9,271.6z"/>
							<path class="st3" d="M312.5,249.3l29.1-47.8c0.8-1.2,0.4-2.8-0.9-3.6s-2.8-0.4-3.6,0.9l-29.1,47.8c-0.8,1.2-0.4,2.8,0.9,3.6
								S311.8,250.5,312.5,249.3L312.5,249.3z"/>
							<path class="st3" d="M339,204.5c0.8-1.2,0.4-2.8-0.9-3.6l-11.3-6.9c-1.2-0.8-2.8-0.4-3.6,0.9s-0.4,2.8,0.9,3.6l11.3,6.9
								C336.7,206.1,338.3,205.7,339,204.5z"/>
							<path class="st3" d="M334.2,212.4c0.8-1.2,0.4-2.8-0.9-3.6L322,202c-1.2-0.8-2.8-0.4-3.6,0.9s-0.4,2.8,0.9,3.6l11.3,6.9
								C331.8,214.1,333.4,213.7,334.2,212.4z"/>
						</g>
					</g>
					<g>
						<path class="st4" d="M440.9,180.3L440.9,180.3c11.6,7.5,25,11.7,38.8,12.2l10.8,0.4v64.4c0,14.8-8.6,28.8-23.6,38.4l-26,16.6
							l-26-16.6c-15-9.6-23.6-23.6-23.6-38.4v-64.4l10.8-0.4C415.9,192,429.3,187.8,440.9,180.3z"/>
						<g class="st5">
							<path class="st6" d="M440.9,198.1L440.9,198.1c8.7,5.6,18.7,8.8,29,9.1l8.1,0.3v48.1c0,11-6.5,21.5-17.7,28.7l-19.4,12.4
								l-19.4-12.4c-11.2-7.2-17.7-17.6-17.7-28.7v-48.1l8.1-0.3C422.2,206.8,432.2,203.6,440.9,198.1L440.9,198.1z"/>
						</g>
						<g>
							<path class="st2" d="M457.9,244.5h-36.1v-23.7c0-6,4.9-10.9,11-10.9h14.2c6,0,11,4.9,11,10.9L457.9,244.5L457.9,244.5z
								 M426.7,239.6H453v-18.8c0-3.3-2.7-6.1-6.1-6.1h-14.2c-3.3,0-6.1,2.7-6.1,6.1L426.7,239.6L426.7,239.6z"/>
							<path class="st2" d="M460.8,234.3h-41.6c-0.7,0-1.2,0.6-1.2,1.2v36.2c0,2.1,1.7,3.8,3.8,3.8h36.4c2.1,0,3.8-1.7,3.8-3.8
								v-36.2C462,234.9,461.5,234.3,460.8,234.3L460.8,234.3z"/>
							<path class="st4" d="M444.8,265.3l-2.9-14.7c1.1-0.6,1.8-1.8,1.8-3.2c0-2.1-1.7-3.7-3.7-3.7s-3.7,1.7-3.7,3.7
								c0,1.4,0.7,2.6,1.8,3.2l-2.9,14.7H444.8L444.8,265.3z"/>
						</g>
					</g>
					<g>
						<path class="st4" d="M191,180.3L191,180.3c11.6,7.5,25,11.7,38.8,12.2l10.8,0.4v64.4c0,14.8-8.6,28.8-23.6,38.4l-26,16.6
							l-26-16.6c-15-9.6-23.6-23.6-23.6-38.4v-64.4l10.8-0.4C166,192,179.4,187.8,191,180.3L191,180.3z"/>
						<g class="st5">
							<path class="st6" d="M191,198.1L191,198.1c8.7,5.6,18.7,8.8,29,9.1l8.1,0.3v48.1c0,11-6.5,21.5-17.7,28.7L191,296.7
								l-19.4-12.4c-11.2-7.2-17.7-17.6-17.7-28.7v-48.1l8.1-0.3C172.3,206.8,182.4,203.6,191,198.1z"/>
						</g>
						<g>
							<path class="st2" d="M208,244.5h-36.1v-23.7c0-6,4.9-10.9,11-10.9h14.2c6,0,11,4.9,11,10.9L208,244.5L208,244.5z
								 M176.8,239.6h26.3v-18.8c0-3.3-2.7-6.1-6.1-6.1h-14.2c-3.3,0-6.1,2.7-6.1,6.1L176.8,239.6L176.8,239.6z"/>
							<path class="st2" d="M210.9,234.3h-41.6c-0.7,0-1.2,0.6-1.2,1.2v36.2c0,2.1,1.7,3.8,3.8,3.8h36.4c2.1,0,3.8-1.7,3.8-3.8
								v-36.2C212.1,234.9,211.6,234.3,210.9,234.3L210.9,234.3z"/>
							<path class="st4" d="M194.9,265.3l-2.9-14.7c1.1-0.6,1.8-1.8,1.8-3.2c0-2.1-1.7-3.7-3.7-3.7s-3.7,1.7-3.7,3.7
								c0,1.4,0.7,2.6,1.8,3.2l-2.9,14.7H194.9z"/>
						</g>
					</g>
				</g>
				<g>
					<path class="st7" d="M140.2,124.4c-1.7-4.1-3.7-8.8-6.2-14.1c-4.1,9-8.6,17.8-19.9,16.4c0.7,1.5,1.3,2.9,1.8,4.2
						C124,128.7,132.1,126.7,140.2,124.4L140.2,124.4z"/>
					<path class="st8" d="M134,110.4c-2.5-5.4-5.5-11.5-8.9-18.2l-22.2,11.3c4.8,9.5,8.5,17.2,11.2,23.4
						C125.4,128.2,129.9,119.4,134,110.4L134,110.4z"/>
					<path class="st9" d="M88.4,52c0.3-0.5,0.9-0.9,1.2-1.5c0.6-1.1,0.2-2.6-0.4-3.7c-0.1-0.2-0.3-0.5-0.5-0.5
						c-0.1,0-0.2,0.1-0.3,0.1c-0.4,0.2-0.7,0.5-1,0.9c1,0.7,1,2.2,0.6,3.2c-0.4,1.1-1.2,2.1-1.5,3.2c-0.3,1.1,0,2.3,0.6,3.2
						c0.6,0.9,1.6,1.6,2.7,1.7c0.3,0,0.7,0,1-0.1c0.3-0.2,0.5-0.5,0.4-0.8c-0.1-0.2-0.2-0.3-0.4-0.5c-0.8-0.6-2.1-0.6-2.6-1.4
						c-0.2-0.3-0.3-0.7-0.3-1.1C87.7,53.8,87.8,52.8,88.4,52L88.4,52z"/>
					<path class="st9" d="M59.7,49.9c-0.4,0.5-0.7,1.2-0.9,1.8c-0.1,0.4-0.2,0.8-0.2,1.3c0.1,0.9,0.9,1.5,1.4,2.2
						c0.5,0.7,0.6,1.6,0.4,2.4c-0.3,1.3-1.5,2.5-1.2,3.9c0.1,0.6,0.5,1.1,1,1.5c0.5,0.5,1.2,0.9,1.9,0.8s1.3-0.8,1-1.5
						c-0.2-0.5-0.9-0.7-1.3-1.2c-0.6-0.7-0.3-1.8,0.1-2.7s0.9-1.8,0.6-2.7c-0.5-1.3-2.6-1.7-2.7-3.1c-0.1-0.9,0.8-1.6,1.3-2.4
						c0.7-1.1,0.5-2.7-0.4-3.7c0.2,0.7,0.3,1.5,0,2.2C60.4,49.2,60,49.5,59.7,49.9L59.7,49.9z"/>
					<path class="st8" d="M129.7,269.7c-2.9,4.5-9.7,13-36.6,6.8s-25.1-7.3-36.4-5.9C45.4,272,28.1,271,28.1,271l24.8-17.9l38.3-3.1
						l19.8,2.8l16.7,5.7L129.7,269.7L129.7,269.7z"/>
					<path class="st7" d="M36.4,263.1c-1,15.6-2.1,40.9-2.4,53.7c-0.3,12.8,2.8,43.3,3.1,47.1s0.3,10,0.3,10l26.7-0.4
						c0,0,1.7-29.8,2.8-39.9c1-10,1.1-41.3,0.7-49.2c-1.2-24,0-33.6,0.3-29.1L36.4,263.1L36.4,263.1z"/>
					<path class="st10" d="M36.3,388.4c0,0,0.8-1.5,0.5-2s-2.8-2.9-2.8-4.1s2.5-2.5,2.3-5.6s0.1-7.5,0.1-7.5s19.1,3.1,28.3,0
						c0,0,2.4,0,2.1,1.4s-1.9,6.1-0.9,7.8c1,1.7,5.4,3.6,5,5c-0.3,1.4-3.8,3.8-3.8,5.4s-28.8,4.5-28.8,4.5L36.3,388.4L36.3,388.4z"
						/>
					<path class="st11" d="M36.3,388.4c0,0-4.2,21-4.6,24s-0.2,9,0.5,9.5c0.7,0.5,42.5,0,42.5,0s2.5-0.5,2.1-3.9s-0.7-7.4-1.6-10.6
						c-0.9-3.2-7.4-15.7-7.2-19.4c0,0-7.2,1.2-8.1,1.2c0,0,1.8-5.5-0.2-6s-15-0.7-15.3,0.9c-0.2,1.6-1.2,1.9-0.5,5.5
						C43.9,389.6,39.1,390.3,36.3,388.4L36.3,388.4z"/>
					<path class="st2" d="M32.1,421.9c-0.7-0.5-0.9-6.5-0.5-9.5c0.1-0.4,0.2-1,0.3-1.9l2.7,1.5c0,0,5.1-11.6,18.7-12.7
						c13.6-1.2,20.1,12.2,20.1,12.2s1.2,0.2,2.5,0.3c0.3,2.1,0.5,4.2,0.8,6.2c0.5,3.5-2.1,3.9-2.1,3.9S32.8,422.4,32.1,421.9
						L32.1,421.9z"/>
					<path class="st8" d="M53.8,414.1c12.2,0,19.7-2.2,19.8-2.2c0.2-0.1,0.3-0.3,0.3-0.5s-0.3-0.3-0.5-0.3c-0.2,0-15.8,4.5-38.7,0.5
						c-0.2,0-0.5,0.1-0.5,0.3s0.1,0.5,0.3,0.5C41.8,413.7,48.3,414.1,53.8,414.1z"/>
					<path class="st8" d="M45.4,400.5C45.4,400.5,45.5,400.5,45.4,400.5c0.3,0,0.5-0.2,0.4-0.5l-1.5-10.5c0-0.2-0.2-0.4-0.5-0.4
						c-0.2,0-0.4,0.2-0.4,0.5l1.5,10.5C45,400.4,45.2,400.5,45.4,400.5z"/>
					<path class="st8" d="M58.4,398.9c0.2,0,0.4-0.1,0.4-0.4l1.5-9.4c0-0.2-0.1-0.4-0.3-0.5s-0.5,0.1-0.5,0.4l-1.5,9.4
						C58,398.7,58.1,398.9,58.4,398.9C58.4,398.9,58.4,398.9,58.4,398.9z"/>
					<path class="st8" d="M37.6,422.2C37.6,422.2,37.7,422.2,37.6,422.2c0.3,0,0.5-0.2,0.4-0.5c-0.5-3.4,0.2-8.7,0.2-8.7
						c0-0.2-0.1-0.4-0.4-0.5c-0.2,0-0.4,0.1-0.5,0.4c0,0.2-0.7,5.5-0.2,9C37.2,422,37.4,422.2,37.6,422.2L37.6,422.2z"/>
					<path class="st8" d="M41.3,420.3c0,0,0.1,0,0.1,0c0.2-0.1,0.4-0.3,0.3-0.5c-0.5-1.8,0-6.4,0-6.4c0-0.2-0.1-0.4-0.4-0.5
						c-0.2-0.1-0.4,0.1-0.5,0.4c0,0.2-0.5,4.8,0,6.7C40.9,420.1,41.1,420.3,41.3,420.3L41.3,420.3z"/>
					<path class="st8" d="M65.1,422.5c0.2,0,0.4-0.2,0.4-0.4v-8.8c0-0.2-0.2-0.4-0.4-0.4s-0.4,0.2-0.4,0.4v8.8
						C64.7,422.3,64.9,422.5,65.1,422.5z"/>
					<path class="st8" d="M68.1,418.8c0.2,0,0.4-0.2,0.4-0.4v-5.7c0-0.2-0.2-0.4-0.4-0.4s-0.4,0.2-0.4,0.4v5.7
						C67.7,418.6,67.9,418.8,68.1,418.8z"/>
					<path class="st8" d="M62.4,422.5c0.2,0,0.4-0.2,0.4-0.4v-8.5c0-0.2-0.2-0.4-0.4-0.4s-0.4,0.2-0.4,0.4v8.5
						C62,422.3,62.2,422.5,62.4,422.5z"/>
					<path class="st2" d="M44.4,401.1c0.2,0,0.3,0,0.5-0.1c4.7-3.2,14.2-1.4,14.3-1.4c0.5,0.1,0.9-0.2,1-0.7c0.1-0.5-0.2-0.9-0.7-1
						c-0.3-0.1-6.3-1.2-11.4,0c2.1-1.3,5.7-2.6,11.7-3.2c0.4,0,0.7-0.3,0.8-0.7s-0.1-0.7-0.5-0.9c-0.2-0.1-5.8-2.7-14.5-2
						c1.3-0.7,4.9-1.7,15.3-1.3c0.5,0,0.9-0.4,0.9-0.8c0-0.5-0.3-0.9-0.8-0.9c-10.5-0.4-16.2,0.5-17.4,2.6c-0.4,0.7-0.2,1.4,0,1.8
						c0.2,0.3,0.5,0.4,0.8,0.4c4.9-0.6,8.9-0.1,11.5,0.5c-10.4,1.8-12.2,6.3-12.3,6.5c-0.1,0.4,0,0.7,0.3,1
						C44,401,44.2,401.1,44.4,401.1L44.4,401.1z"/>
					<path class="st2" d="M38.3,401.6c-0.2-0.4,0-0.9,0.5-1.1c1-0.4,2-1.4,2.8-3.1c0.2-0.4,0.3-0.7,0.5-1.1c0.5-1.1,1-2.3,1.9-3.4
						c0,0,0.1-0.1,0.1-0.1c-2.2,0.7-4.5,1.2-6.9,0.7c-0.2,0-0.4-0.2-0.5-0.4c-0.1-0.2-0.2-0.5-0.1-0.7c0.4-1.2,1.6-4.2,4.4-4.8
						c1-0.2,2-0.1,2.8,0c2.2,0.3,4.4,0.6,6.6,1.2c3.1-0.9,6.5-1,9.2-1c1.4,0,4.5-0.1,5.9,2c0.8,1,0.9,2.3,1,3.4
						c0.1,0.6,0.2,2-0.9,2.8c-0.6,0.4-1.3,0.4-1.9,0.3c-2.7-0.4-5.1-1.7-7.4-3c-1.3-0.7-2.7-1.5-4.1-2c-0.6-0.2-1.2-0.4-1.8-0.6
						c-2,0.6-3.8,1.7-5.2,3.4c-0.7,0.8-1.2,1.9-1.6,3c-0.2,0.4-0.3,0.8-0.5,1.2c-1,2.1-2.2,3.4-3.7,3.9c-0.1,0-0.2,0.1-0.3,0.1
						C38.8,402.2,38.5,402,38.3,401.6L38.3,401.6z M59.7,389.6c-2.1,0-4.2,0.1-6.2,0.4c1.3,0.5,2.5,1.2,3.6,1.9
						c2.3,1.3,4.4,2.5,6.9,2.8c0.4,0.1,0.6,0,0.7,0c0.1-0.1,0.2-0.3,0.2-1.2c-0.1-0.9-0.2-1.9-0.7-2.5c-0.8-1.1-2.5-1.3-4.2-1.3
						C59.9,389.6,59.8,389.6,59.7,389.6L59.7,389.6z M43.6,389.4c-0.8-0.1-1.5-0.2-2.2-0.1c-1.5,0.3-2.3,1.7-2.8,2.7
						c2.5,0.2,5.1-0.8,7.8-1.8c0.3-0.1,0.5-0.2,0.8-0.3C46,389.7,44.8,389.5,43.6,389.4L43.6,389.4z"/>
					<path class="st7" d="M55.1,275.6c-3.4-0.6-8.3,3.8-9.4,10S42,302,52.7,302s10.1-8.3,8-13.9C58.6,282.5,60.7,276.6,55.1,275.6
						L55.1,275.6z"/>
					<path class="st8" d="M39.2,386.5c0.1,0,0.2-0.1,0.2-0.2c0-0.7-0.5-1.5-1-2.2c-0.6-0.8-1.1-1.7-0.8-2.1c0.7-0.8,0.8-2.5,1-6
						c0.1-1.4,0.2-3.1,0.3-5.2c0-0.1-0.1-0.3-0.2-0.3c-0.1,0-0.3,0.1-0.3,0.2c-0.2,2.1-0.2,3.8-0.3,5.2c-0.2,3.3-0.3,5.1-0.8,5.7
						c-0.6,0.7,0.1,1.8,0.7,2.7c0.5,0.7,0.9,1.4,0.9,1.9C38.9,386.4,39,386.5,39.2,386.5L39.2,386.5z"/>
					<path class="st8" d="M42,380.6c0.1,0,0.2-0.1,0.2-0.2v-9c0-0.1-0.1-0.2-0.2-0.2s-0.2,0.1-0.2,0.2v9
						C41.7,380.5,41.8,380.6,42,380.6z"/>
					<path class="st8" d="M65,386.1c0,0,0.1,0,0.1,0c0.3-0.2,2.7-1.6,2.9-2.8c0.1-0.7-0.9-1.4-2.1-2.3c-0.9-0.6-1.9-1.3-2.5-2.1
						c-0.7-0.9-0.4-3.1-0.2-4.9c0.2-1.9,0.4-3.1-0.3-3.3c-0.1,0-0.3,0-0.3,0.2c0,0.1,0,0.3,0.2,0.3c0.3,0.1,0.1,1.8-0.1,2.8
						c-0.2,2-0.5,4.3,0.3,5.3c0.6,0.8,1.7,1.5,2.6,2.2c0.9,0.6,2,1.4,1.9,1.8c-0.1,0.7-1.7,1.9-2.7,2.4c-0.1,0.1-0.2,0.2-0.1,0.4
						C64.8,386.1,64.9,386.1,65,386.1L65,386.1z"/>
					<path class="st8" d="M62.4,385.9c0.1,0,0.2,0,0.2-0.1c0-0.1,0.9-1.5,0.9-2.4c0-0.6-0.8-1.2-1.7-1.9c-0.5-0.4-1.2-1-1.2-1.2
						c0-0.7-0.5-7.5-0.7-8.7c0-0.1-0.1-0.2-0.3-0.2c-0.1,0-0.2,0.1-0.2,0.3c0.2,1.1,0.7,7.9,0.7,8.6c0,0.4,0.5,0.9,1.5,1.6
						c0.6,0.5,1.5,1.2,1.5,1.5c0,0.6-0.6,1.8-0.8,2.1c-0.1,0.1,0,0.3,0.1,0.4C62.3,385.9,62.4,385.9,62.4,385.9L62.4,385.9z"/>
					<path class="st8" d="M57,380.6L57,380.6c0.1,0,0.2-0.1,0.2-0.3l-0.2-8.1c0-0.1-0.1-0.2-0.3-0.2c-0.1,0-0.2,0.1-0.2,0.3l0.2,8.1
						C56.8,380.5,56.9,380.6,57,380.6L57,380.6z"/>
					<path class="st8" d="M45.9,381.3c0.1,0,0.2-0.1,0.2-0.2v-9.4c0-0.1-0.1-0.2-0.2-0.2s-0.2,0.1-0.2,0.2v9.4
						C45.7,381.2,45.8,381.3,45.9,381.3z"/>
					<path class="st8" d="M53.9,296.8c0.5,0,1-0.2,1.5-0.6c1.7-1.5,1.2-4.3,0.4-5.8c-0.5-1-1-1.5-1.6-1.4c-0.1,0-0.2,0.2-0.2,0.3
						c0,0.1,0.2,0.2,0.3,0.2c0,0,0,0,0,0c0.2,0,0.6,0.4,1,1.1c0.7,1.4,1.2,3.9-0.3,5.2c-0.8,0.7-1.5,0.5-2,0.2
						c-1.4-0.8-2.5-3.5-2-6.2c1.2-5.3,2.2-6,2.5-6c0,0,0,0,0.1,0c0.3,0,0.7,0.4,0.9,0.8c0.1,0.1,0.2,0.2,0.3,0.1
						c0.1-0.1,0.2-0.2,0.1-0.4c-0.5-0.8-0.9-1.1-1.5-1c-0.4,0.1-1.6,0.2-3,6.4c-0.7,3,0.6,5.9,2.2,6.8
						C53.2,296.7,53.6,296.8,53.9,296.8L53.9,296.8z"/>
					<path class="st7" d="M78,264.5c1.7,9.7,2.1,14.6,2.1,24.3s0,18.4,5.6,40.2s11.4,41.2,11.4,41.2h25.3c0,0-7.3-70-6.2-77
						s0.5-34.7,0.5-34.7S78,264.5,78,264.5z"/>
					<path class="st10" d="M101.3,389.6c-0.9-1.7-5.4-2.5-5.6-4.6s2.9-5.2,2.2-6.6c-0.7-1.4-3.6-5.2-3.3-7.1s1.7-2.8,1.7-2.8
						s17,1.9,26.2-0.7c0,0,2.9,1.4,2.6,3.1c-0.3,1.7-0.5,3.1-0.3,4s4.7,10.4,4.7,10.4s-3.8,10.4-7.5,10.4s-12.1,0.5-12.8,0.5
						S101.3,389.6,101.3,389.6L101.3,389.6z"/>
					<g>
						<path class="st11" d="M130.7,382.9c0,0-10.9,15.2-29.4,6.7c0,0-2.1,0.2-2.1,6.2s-0.5,24.7,2.1,25.9c2.5,1.2,69.4,0,69.4,0
							s3.5-3.7,3.5-9s-2.1-9.9-8.3-10.9c-8.3-1.2-13.2-3-13.2-3L130.7,382.9L130.7,382.9z"/>
						<path class="st2" d="M101.3,421.7c-1.1-0.5-1.7-4.5-1.9-9.4c16,0.9,47.6,0.8,47.6,0.8c2.1-5.6,5.4-11.2,8.1-13.5
							c2.2,0.6,5.8,1.5,10.6,2.2c6.2,0.9,8.3,5.5,8.3,10.9s-3.5,9-3.5,9S103.9,422.9,101.3,421.7L101.3,421.7z"/>
						<path class="st11" d="M130.7,382.9c0,0-1.9-5.7-2.7-5.7s-6.9,2.4-6.2,4.7s7.1,7.8,7.1,7.8l3.8-2.8L130.7,382.9L130.7,382.9z"
							/>
						<path class="st8" d="M174.3,414.4c0.2,0,0.4-0.2,0.4-0.4s-0.2-0.4-0.4-0.4l-74.9-1.6l0,0c-0.2,0-0.4,0.2-0.4,0.4
							s0.2,0.4,0.4,0.4L174.3,414.4L174.3,414.4z"/>
						<path class="st8" d="M151.4,404.5c0.2,0,0.3-0.1,0.4-0.3c0.1-0.2,0-0.5-0.2-0.5c-0.6-0.3-2.7-1.1-3.4-1.2
							c-1.1-0.5-13.5-9.5-21.7-15.4c-0.2-0.1-0.4-0.1-0.6,0.1s-0.1,0.5,0.1,0.6c21.4,15.6,21.9,15.6,22.1,15.6
							c0.3,0,1.9,0.6,3.2,1.1C151.3,404.5,151.3,404.5,151.4,404.5L151.4,404.5z"/>
						<path class="st8" d="M108.6,421.2c0.2,0,0.4-0.2,0.4-0.4v-8.1c0-0.2-0.2-0.4-0.4-0.4s-0.4,0.2-0.4,0.4v8.1
							C108.2,421,108.4,421.2,108.6,421.2z"/>
						<path class="st8" d="M111.9,421.9c0.2,0,0.4-0.2,0.4-0.4V413c0-0.2-0.2-0.4-0.4-0.4s-0.4,0.2-0.4,0.4v8.5
							C111.5,421.7,111.7,421.9,111.9,421.9z"/>
						<path class="st8" d="M115.1,419.6c0.2,0,0.4-0.2,0.4-0.4v-3.6c0-0.2-0.2-0.4-0.4-0.4s-0.4,0.2-0.4,0.4v3.6
							C114.7,419.4,114.8,419.6,115.1,419.6z"/>
						<path class="st8" d="M121.7,422.6c0.2,0,0.4-0.2,0.4-0.4v-9.4c0-0.2-0.2-0.4-0.4-0.4s-0.4,0.2-0.4,0.4v9.4
							C121.2,422.4,121.4,422.6,121.7,422.6z"/>
						<path class="st8" d="M126.5,421.6c0.2,0,0.4-0.2,0.4-0.4v-8.1c0-0.2-0.2-0.4-0.4-0.4s-0.4,0.2-0.4,0.4v8.1
							C126.1,421.4,126.3,421.6,126.5,421.6z"/>
						<path class="st8" d="M150.4,422c0.2,0,0.4-0.2,0.4-0.4v-8.3c0-0.2-0.2-0.4-0.4-0.4s-0.4,0.2-0.4,0.4v8.3
							C150,421.9,150.2,422,150.4,422z"/>
						<path class="st8" d="M154,421.2c0.2,0,0.4-0.2,0.4-0.4v-7.2c0-0.2-0.2-0.4-0.4-0.4s-0.4,0.2-0.4,0.4v7.2
							C153.6,421,153.8,421.2,154,421.2z"/>
						<path class="st8" d="M157.6,421.7c0.2,0,0.4-0.2,0.4-0.4v-7.6c0-0.2-0.2-0.4-0.4-0.4s-0.4,0.2-0.4,0.4v7.6
							C157.2,421.5,157.4,421.7,157.6,421.7z"/>
						<path class="st2" d="M148.1,404.3c0.3,0,0.7-0.2,0.8-0.5c0.5-1.3,2-4.8,2.9-5.7c0.3-0.3,0.3-0.9,0-1.2c-0.3-0.3-0.9-0.3-1.2,0
							c-0.6,0.6-1.4,2-2,3.2l-0.5-5.6c0-0.4-0.3-0.6-0.6-0.7c-0.3-0.1-0.7,0-0.9,0.3l-2.6,3.6l0.2-5.8c0-0.3-0.2-0.7-0.5-0.8
							c-0.3-0.1-0.7-0.1-0.9,0.1l-3.6,3.4l0.9-5.7c0.1-0.3-0.1-0.7-0.4-0.8c-0.3-0.2-0.7-0.2-0.9,0l-3.9,2.8l1.4-4.7
							c0.1-0.3,0-0.7-0.3-0.9c-0.3-0.2-0.6-0.2-0.9,0l-4.5,2.8l1.8-4.1c0.2-0.4,0-0.9-0.4-1.1c-0.4-0.2-0.9,0-1.1,0.4l-2.9,6.6
							c-0.2,0.3-0.1,0.7,0.2,1c0.3,0.2,0.7,0.3,1,0.1l4.9-3l-1.5,5c-0.1,0.3,0,0.7,0.3,0.9c0.3,0.2,0.7,0.2,1,0l4.3-3l-1,6.1
							c-0.1,0.4,0.1,0.7,0.4,0.9c0.3,0.2,0.7,0.1,1-0.1l3.9-3.7l-0.3,6.5c0,0.4,0.2,0.7,0.6,0.8s0.7,0,1-0.3l3-4.1l0.6,6.7
							C147.4,404,147.7,404.3,148.1,404.3C148.1,404.3,148.1,404.3,148.1,404.3L148.1,404.3z"/>
						<g>
							<path class="st2" d="M101.6,394.1c0.2,0,0.4-0.1,0.4-0.4c0-0.2-0.1-0.5-0.3-0.5c-1.1-0.2-1.7-0.3-1.7-0.3
								c-0.2-0.1-0.4,0.1-0.5,0.4c0,0.2,0.1,0.4,0.4,0.5C99.9,393.8,100.5,393.9,101.6,394.1C101.5,394.1,101.6,394.1,101.6,394.1
								L101.6,394.1z"/>
							<path class="st2" d="M135,409c-0.5-0.8-1.2-1.6-1.9-2.4c-0.2-0.2-0.2-0.4,0-0.6c0.2-0.2,0.4-0.2,0.6,0c0.8,0.8,1.5,1.6,2,2.5
								c0.1,0.2,0.1,0.5-0.1,0.6c-0.1,0-0.1,0.1-0.2,0.1C135.2,409.2,135,409.1,135,409z M130.7,404.6c-0.8-0.6-1.6-1.2-2.6-1.8
								c-0.2-0.1-0.3-0.4-0.1-0.6c0.1-0.2,0.4-0.3,0.6-0.1c0.9,0.6,1.8,1.2,2.6,1.8c0.2,0.1,0.2,0.4,0.1,0.6
								c-0.1,0.1-0.2,0.2-0.3,0.2C130.9,404.7,130.8,404.6,130.7,404.6L130.7,404.6z M125.4,401.3c-0.9-0.5-1.9-0.9-2.8-1.3
								c-0.2-0.1-0.3-0.3-0.2-0.5s0.3-0.3,0.6-0.2c1,0.4,1.9,0.9,2.9,1.4c0.2,0.1,0.3,0.4,0.2,0.6c-0.1,0.1-0.2,0.2-0.4,0.2
								C125.5,401.4,125.5,401.4,125.4,401.3L125.4,401.3z M119.7,398.8c-1-0.4-2-0.7-2.9-1c-0.2-0.1-0.3-0.3-0.3-0.5
								s0.3-0.3,0.5-0.3c1,0.3,2,0.7,3,1c0.2,0.1,0.3,0.3,0.2,0.5c-0.1,0.2-0.2,0.3-0.4,0.3C119.8,398.8,119.7,398.8,119.7,398.8
								L119.7,398.8z M113.7,396.9c-1-0.3-2.1-0.6-3-0.8c-0.2-0.1-0.4-0.3-0.3-0.5s0.3-0.4,0.5-0.3c1,0.2,2,0.5,3.1,0.8
								c0.2,0.1,0.3,0.3,0.3,0.5c-0.1,0.2-0.2,0.3-0.4,0.3C113.8,396.9,113.8,396.9,113.7,396.9L113.7,396.9z M107.7,395.3
								c-1.1-0.2-2.1-0.5-3.1-0.6c-0.2,0-0.4-0.3-0.3-0.5c0-0.2,0.3-0.4,0.5-0.3c0.9,0.2,2,0.4,3.1,0.6c0.2,0,0.4,0.3,0.3,0.5
								C108.1,395.2,108,395.3,107.7,395.3C107.7,395.3,107.7,395.3,107.7,395.3L107.7,395.3z"/>
							<path class="st2" d="M137.1,413.6C137.1,413.6,137.2,413.6,137.1,413.6c0.3,0,0.5-0.3,0.4-0.5c-0.1-0.6-0.2-1.1-0.4-1.7
								c-0.1-0.2-0.3-0.3-0.5-0.3c-0.2,0.1-0.3,0.3-0.3,0.5c0.2,0.5,0.3,1,0.4,1.6C136.8,413.5,137,413.6,137.1,413.6L137.1,413.6z"
								/>
						</g>
						<path class="st2" d="M109,408.3c0.7,0,1.3-0.6,1.3-1.3s-0.6-1.3-1.3-1.3s-1.3,0.6-1.3,1.3S108.3,408.3,109,408.3z"/>
						<path class="st2" d="M115.4,408.3c0.7,0,1.3-0.6,1.3-1.3s-0.6-1.3-1.3-1.3s-1.3,0.6-1.3,1.3S114.7,408.3,115.4,408.3z"/>
					</g>
					<path class="st8" d="M100.3,386.7c0.1,0,0.1,0,0.2-0.1c0.1-0.1,0.1-0.3,0-0.4c-1-0.9-1.4-1.5-1.4-1.9c0-0.2,0.3-0.4,0.7-0.8
						c0.5-0.4,1.3-0.9,1.8-1.9c1-1.9,0.3-2.6-0.9-4.1c-0.7-0.8-1.5-1.7-2.4-3.2c-1.5-2.5-1.4-2.5-1.1-2.7c0.3-0.2,0.8-0.6,1-1.9
						c0-0.1-0.1-0.3-0.2-0.3c-0.1,0-0.3,0.1-0.3,0.2c-0.2,1.1-0.6,1.4-0.9,1.7c-0.6,0.5-0.5,0.8,1,3.4c0.9,1.5,1.7,2.5,2.4,3.3
						c1.2,1.4,1.6,1.9,0.8,3.5c-0.5,0.9-1.1,1.4-1.6,1.7c-0.5,0.3-0.9,0.6-0.9,1.1c0,0.5,0.4,1.2,1.6,2.3
						C100.2,386.7,100.3,386.7,100.3,386.7L100.3,386.7z"/>
					<path class="st8" d="M104.5,387.4c0.1,0,0.1,0,0.2-0.1c0.1-0.1,0.1-0.3,0-0.4c-1.3-1.1-1.1-1.7-0.6-2.7
						c0.3-0.7,0.6-1.5,0.6-2.6c0-2.9-2.3-6.6-3.3-8.1l-0.1-0.2c-0.8-1.4-0.2-3.1-0.2-3.1c0.1-0.1,0-0.3-0.2-0.3
						c-0.1,0-0.3,0-0.3,0.1c0,0.1-0.7,2,0.2,3.6l0.1,0.2c1,1.5,3.2,5.2,3.2,7.9c0,1-0.3,1.8-0.6,2.4c-0.4,1.1-0.8,2,0.8,3.3
						C104.4,387.4,104.4,387.4,104.5,387.4L104.5,387.4z"/>
					<path class="st8" d="M118.1,390.2C118.1,390.2,118.2,390.2,118.1,390.2c0.2,0,0.3-0.2,0.2-0.3c0-0.1-1.7-6.8-4.1-11.1
						c-0.3-0.6-0.6-1-0.8-1.4c-0.5-1-0.8-1.6-0.8-1.8c0.1-0.2,0.1-0.6,0.1-1.6c-0.2-2.5-0.8-2.9-1.8-3.5c-0.2-0.1-0.4-0.3-0.7-0.5
						c-0.1-0.1-0.3-0.1-0.3,0s-0.1,0.3,0.1,0.4c0.3,0.2,0.5,0.4,0.7,0.5c0.9,0.6,1.4,0.9,1.6,3.1c0.1,0.9,0,1.3,0,1.5
						c-0.1,0.5-0.1,0.5,0.8,2.1c0.2,0.4,0.4,0.8,0.8,1.4c2.4,4.3,4,11,4,11C117.9,390.1,118,390.2,118.1,390.2L118.1,390.2z"/>
					<path class="st8" d="M124,377.9C124,377.9,124.1,377.9,124,377.9c0.2-0.1,0.3-0.2,0.2-0.3c0,0-0.6-1.5-1.2-3.3
						c-0.3-0.9-0.2-1.1-0.2-1.3c0.1-0.2,0.2-0.5,0.2-1.4c-0.1-2-1.4-2.2-1.5-2.2c-0.2,0-0.3,0.1-0.3,0.2c0,0.1,0.1,0.3,0.2,0.3
						c0.1,0,0.9,0.1,1.1,1.7c0.1,0.8-0.1,1-0.1,1.2c-0.1,0.3-0.2,0.6,0.1,1.6c0.6,1.8,1.2,3.4,1.2,3.4
						C123.8,377.9,123.9,377.9,124,377.9L124,377.9z"/>
					<path class="st8" d="M119.8,388.9C119.8,388.9,119.8,388.9,119.8,388.9c0.2,0,0.3-0.1,0.2-0.3c0-0.3-0.8-6.6-2.9-9.2
						c-1.3-1.6-1.2-2.1-1-2.9c0.1-0.5,0.3-1,0.2-1.9c-0.1-2.6-2.8-4.3-2.9-4.4c-0.1-0.1-0.3,0-0.3,0.1c-0.1,0.1,0,0.3,0.1,0.4
						c0,0,2.6,1.6,2.7,4c0,0.8-0.1,1.4-0.2,1.8c-0.2,1-0.3,1.6,1.1,3.3c2,2.6,2.8,8.9,2.8,9C119.5,388.8,119.6,388.9,119.8,388.9
						L119.8,388.9z"/>
					<path class="st8" d="M107,383.1L107,383.1c0.2,0,0.3-0.1,0.3-0.3c0-0.1-0.1-1.9-1.2-4.8c-0.4-1.2-0.8-1.9-1.1-2.6
						c-0.4-1-0.8-1.8-1.1-3.2c-0.5-2.3,0.1-2.9,0.1-2.9c0.1-0.1,0.1-0.2,0-0.4c-0.1-0.1-0.2-0.1-0.3,0c-0.1,0.1-0.9,0.8-0.3,3.4
						c0.3,1.5,0.7,2.3,1.2,3.3c0.3,0.7,0.6,1.4,1.1,2.6c1,2.8,1.1,4.6,1.1,4.6C106.8,383,106.9,383.1,107,383.1L107,383.1z"/>
					<path class="st7" d="M116.8,276.8c0,6.8-0.2,13.5-0.6,16.5c-0.2,1.2-0.1,4.4,0.1,8.8c-3.4,0.5-8.2,0.7-9.5-1.3
						c-2.1-3.2,2.3-12.9,3-18.5C110.5,277.2,111.8,277,116.8,276.8L116.8,276.8z"/>
					<path class="st7" d="M26.4,105.8c-3.5,16.3-6.2,58.2-7.3,74.5s-3.1,30.9-3.1,30.9l18.4,2.4l15.2-94.6L26.4,105.8L26.4,105.8z"
						/>
					<path class="st8" d="M44.7,124.6c0,0-13.3-4.2-17.2-9.5c-3.9-5.3,19.9-0.1,19.9-0.1L44.7,124.6L44.7,124.6z"/>
					<g>
						<path class="st4" d="M38.8,160.5c-3.8,10.4-4.9,18-5.5,36.8s-4.5,61-10.8,72.4c0,0,5.5,3.5,11.1,2.8s13.5-9.7,28.1-6.9
							c14.6,2.8,21.9,6.6,36.1,3.8c14.2-2.8,15.3-9.7,31.9,0.4c0,0,1.7,0,0.4-5.5c-1.4-5.5-7.6-23.9-7.6-40.6s-2.1-60-10.4-67.6
							s-43.3-8-43.3-8s-18,0-19.1,0.4S38.9,160.5,38.8,160.5L38.8,160.5z"/>
						<path class="st2" d="M61.1,237.7c-0.5,0-1.1-0.1-1.6-0.3c-1.1-0.5-1.8-1.7-1.9-3.4c0-0.3,0-0.6,0-0.9c0-0.7,0-1.4-0.3-2
							c-0.5-1.1-2.2-1.7-3.3-1.1c-0.3,0.2-0.6,0.4-0.9,0.6c-0.8,0.6-1.7,1.4-2.8,1.2c-1.4-0.2-2.1-1.6-2.5-2.5
							c-0.7-1.7-1.3-3.6-0.8-5.6c0.5-2.2,2.8-3.9,4.8-3.3c0.1,0,0.2,0.1,0.4,0.1c0.2,0.1,0.4,0.1,0.5,0.1c0,0,0.1-0.1,0.1-0.3
							c0-0.8-0.8-1.4-2.1-2.2c-1.3-0.8-2.9-1.8-3-3.5c0-0.7,0.2-1.3,0.6-2.1c1.4-2.5,4.6-4,7.5-3.4c2.3,0.5,4.3,2.2,5.2,4.4
							c0.2-0.6,0.4-1.2,0.5-1.9c0.5-2.8,1.9-3.6,2.9-3.8c1.1-0.2,2.2,0.3,3,0.8c1.4,0.8,2.8,1.8,4.1,2.9c0.8,0.7,1.8,1.7,1.8,3.1
							c0,1.5-1.2,2.8-3.3,3.4l-0.5,0.2c-0.7,0.2-1.3,0.4-1.8,0.7c0.6,0.2,1.3,0.3,2,0.3c0.3,0,0.7,0,1.1-0.1c0.4,0,0.9-0.1,1.3-0.1
							c1,0,2.3,0.1,3.2,1.3c0.5,0.7,0.6,1.6,0.6,2.3c0,2-0.3,3.6-1.2,4.8c-1.1,1.6-3.1,2.5-4.8,2.1c-0.9-0.2-1.6-0.7-2.2-1.2
							c-0.2-0.2-0.5-0.3-0.7-0.5c-0.4-0.2-0.8-0.4-1.1-0.4c0.8,1.2,1.6,2.6,1.8,4.1c0.4,1.9-0.2,4.5-2.2,5.6c-1,0.6-2.1,0.6-3,0.6
							C61.9,237.7,61.5,237.7,61.1,237.7L61.1,237.7z M67.6,226.4c0.3,0.2,0.5,0.4,0.8,0.6c0.6,0.4,1.1,0.8,1.7,0.9
							c1,0.2,2.3-0.4,3-1.4c0.6-0.9,0.9-2.2,0.9-3.9c0-0.5-0.1-1-0.3-1.4c-0.3-0.4-0.8-0.6-1.8-0.6c-0.4,0-0.8,0-1.2,0.1
							c-0.4,0-0.8,0.1-1.2,0.1c-1.3,0-2.7-0.4-3.8-1.1c-0.2-0.1-0.3-0.3-0.4-0.5c-0.1-0.2,0-0.4,0.1-0.6c0.8-1.2,2.2-1.7,3.5-2
							l0.5-0.1c1-0.3,2.1-1,2.1-1.9c0-0.6-0.7-1.3-1.2-1.8c-1.2-1-2.5-1.9-3.8-2.7c-0.6-0.3-1.2-0.7-1.8-0.6c-1,0.2-1.4,1.6-1.6,2.6
							c-0.3,1.4-0.6,3.2-2.1,4c-0.2,0.1-0.5,0.1-0.8,0c-0.2-0.1-0.4-0.4-0.5-0.6c-0.3-2.2-2.1-4.2-4.2-4.6c-2.2-0.4-4.6,0.7-5.7,2.6
							c-0.3,0.4-0.4,0.8-0.4,1.1c0,0.9,1.1,1.5,2.2,2.2c1.4,0.9,3,1.9,2.9,3.7c0,0.9-0.5,1.6-1.3,1.8c-0.2,0.1-0.4,0.1-0.5,0.1l0,0
							c-0.4,0-0.7-0.1-1-0.2l-0.3-0.1c-1.1-0.3-2.5,0.8-2.8,2.1c-0.4,1.5,0.2,3.1,0.7,4.5c0.4,0.9,0.8,1.4,1.3,1.5
							c0.4,0,0.9-0.4,1.4-0.8c0.3-0.3,0.7-0.6,1.1-0.8c0.6-0.3,1.2-0.5,1.9-0.5c1.7,0,3.2,1,3.8,2.4c0.4,0.9,0.4,1.7,0.4,2.6
							c0,0.3,0,0.6,0,0.8c0,0.4,0.2,1.6,0.9,2c0.3,0.1,0.6,0.1,1,0.2c0.3,0,0.7,0,1,0c1,0,1.6-0.1,2.1-0.4c1.2-0.7,1.6-2.5,1.4-3.8
							c-0.3-1.6-1.3-3.1-2.3-4.5c-0.3-0.4-0.2-0.9,0.2-1.2c0.4-0.3,1-0.5,1.6-0.5C66,225.6,66.8,225.9,67.6,226.4L67.6,226.4z"/>
						<path class="st2" d="M103,250.8c-0.3,0-0.8,0-1.2-0.2c-0.8-0.4-1.3-1.3-1.4-2.5c0-0.2,0-0.4,0-0.6c0-0.5,0-0.9-0.2-1.2
							c-0.2-0.6-1.2-0.9-1.8-0.6c-0.2,0.1-0.4,0.3-0.5,0.4c-0.5,0.4-1,0.9-1.8,0.9c-0.1,0-0.3,0-0.3,0c-1.2-0.2-1.7-1.4-1.9-1.9
							c-0.5-1.1-0.9-2.5-0.6-3.9c0.4-1.7,2.1-2.8,3.6-2.4l0.3,0.1l0,0c-0.1-0.3-0.6-0.7-1.2-1.1c-0.9-0.6-2-1.3-2.1-2.6
							c0-0.5,0.1-1,0.4-1.5c1-1.8,3.2-2.8,5.3-2.4c1.4,0.3,2.6,1.2,3.3,2.4c0-0.2,0.1-0.4,0.1-0.6c0.4-2,1.4-2.6,2.1-2.8
							c0.8-0.2,1.6,0.2,2.2,0.5c1,0.6,1.9,1.2,2.7,2c0.6,0.5,1.3,1.2,1.3,2.2c0,1.1-0.9,2.1-2.4,2.6l-0.4,0.1
							c-0.1,0-0.2,0.1-0.3,0.1c0.1,0,0.2,0,0.4,0l0,0c0.2,0,0.4,0,0.7,0c0.3,0,0.6,0,0.9,0c0.7,0,1.7,0.1,2.3,1
							c0.4,0.5,0.4,1.2,0.4,1.7c0,1.4-0.2,2.5-0.8,3.4c-0.8,1.2-2.2,1.8-3.5,1.5c-0.6-0.2-1.1-0.5-1.6-0.8c-0.1-0.1-0.2-0.2-0.4-0.3
							c0.4,0.6,0.7,1.3,0.8,2.1c0.3,1.7-0.3,3.3-1.6,4c-0.7,0.4-1.6,0.5-2.1,0.5C103.5,250.8,103.3,250.8,103,250.8L103,250.8z
							 M107.5,242.7c0.2,0.1,0.4,0.2,0.6,0.4c0.4,0.2,0.7,0.5,1,0.6c0.6,0.1,1.3-0.2,1.7-0.8c0.4-0.6,0.6-1.4,0.5-2.4
							c0-0.3,0-0.6-0.1-0.8c-0.1-0.1-0.3-0.3-0.9-0.3c-0.2,0-0.5,0-0.8,0c-1.1,0.1-2.5-0.1-3.5-0.7c-0.2-0.1-0.3-0.3-0.4-0.5
							c-0.1-0.2,0-0.4,0.1-0.6c0.6-0.9,1.6-1.2,2.5-1.5l0.3-0.1c0.6-0.2,1.2-0.6,1.2-1c0-0.3-0.4-0.7-0.7-1
							c-0.8-0.7-1.6-1.3-2.5-1.8c-0.3-0.2-0.6-0.3-1-0.4c-0.3,0.1-0.7,0.6-0.8,1.5c-0.2,0.9-0.4,2.2-1.5,2.9c-0.2,0.1-0.5,0.1-0.8,0
							c-0.2-0.1-0.4-0.4-0.5-0.6c-0.2-1.3-1.3-2.6-2.6-2.8c-1.3-0.3-2.8,0.4-3.5,1.6c-0.2,0.3-0.2,0.5-0.2,0.6
							c0,0.4,0.5,0.8,1.3,1.2c0.9,0.6,2.1,1.3,2,2.7c0,0.7-0.4,1.3-1,1.5c-0.1,0-0.4,0.1-0.4,0.1l0,0c-0.3,0-0.6-0.1-0.8-0.1
							l-0.4-0.1c-0.5,0-1.2,0.6-1.3,1.2c-0.2,0.9,0.1,2,0.5,2.9c0.3,0.7,0.5,0.8,0.6,0.8c0.2,0,0.5-0.2,0.8-0.5
							c0.2-0.2,0.5-0.4,0.8-0.6c1.4-0.8,3.6-0.1,4.2,1.4c0.3,0.6,0.3,1.2,0.3,1.8c0,0.2,0,0.4,0,0.5c0,0.5,0.2,1,0.5,1.1
							c0.1,0.1,0.4,0.1,0.6,0.1c0.8,0.1,1.6,0,2-0.2c0.7-0.4,0.9-1.4,0.8-2.3c-0.2-1-0.8-2-1.5-2.9c-0.3-0.4-0.2-0.9,0.2-1.2
							c0.3-0.2,0.8-0.4,1.2-0.4C106.4,242.2,107,242.4,107.5,242.7L107.5,242.7z"/>
						<g>
							<path class="st2" d="M66.8,266.6c-0.7-0.2-1.5-0.3-2.3-0.5c-0.1-0.2-0.2-0.5-0.3-0.7c-0.3-1.7,0.9-3.2,1.9-4.6
								c1.3-1.6,1.8-2.4,1.2-3.1c-0.5-0.6-1.3-0.5-2.7-0.3c-0.6,0.1-1.2,0.2-1.8,0.1c-1.5-0.1-2.9-1-3.7-2.6
								c-0.8-1.5-0.7-3.3,0.2-4.5s2.5-1.9,4.2-1.8c1.4,0.1,2.6,0.8,3.3,1.8l2-1.5c-1.4-1.3-2.6-2.8-2.3-4.6c0.5-3.8,5.9-3.8,7.5-3.7
								c3.2,0.2,5.1,1.4,5.4,3.3c0,0.3-0.1,0.5-0.3,0.7c-1.1,0.6-2.2,1.4-2.9,2.4c-0.5,0.9-0.6,2.2,0.2,2.9c0.4,0.3,1,0.2,1.3-0.1
								c0.2-0.1,0.5-0.4,0.4-0.7c0-0.2,0-0.4,0.1-0.6c0.7-0.9,1.8-1.3,3.1-1c1.6,0.3,3,1.6,3.4,3.1c0.6,2.4-0.5,4.9-1.7,7.1
								c-1.6,3.1-3.8,4.5-5.7,3.7c-0.5-0.2-0.9-0.5-1.3-0.8c-0.6-0.4-1-0.7-1.3-0.6c-0.2,0-0.3,0.1-0.4,0.3
								c-0.3,0.5-0.3,1.4-0.1,2.4c0.5,2,1,4,1.7,5.9c-0.5-0.1-1.1-0.2-1.6-0.4c-0.6-1.7-1.1-3.5-1.5-5.2c-0.1-0.5-0.5-2.3,0.3-3.4
								c0.3-0.5,0.8-0.8,1.3-0.9c1-0.2,1.8,0.4,2.4,0.8c0.3,0.2,0.6,0.5,0.9,0.6c1.9,0.7,3.7-2.4,4-3.1c1.1-2.1,2.1-4.2,1.6-6.1
								c-0.3-1-1.3-1.9-2.4-2.1c-0.4-0.1-1-0.1-1.5,0.3c0,0.7-0.4,1.4-1.1,1.8c-0.9,0.6-2.1,0.6-2.9,0c-1.4-1.1-1.4-3.2-0.6-4.7
								c0.7-1.2,1.9-2,2.9-2.6c-0.6-1.3-2.9-1.6-4-1.7c-0.9-0.1-5.7-0.2-6.1,2.5c-0.2,1.5,1.2,2.8,2.5,3.9c0.2,0.1,0.2,0.3,0.2,0.6
								s-0.1,0.4-0.3,0.5l-3.3,2.5c-0.2,0.1-0.4,0.2-0.6,0.1c-0.2-0.1-0.4-0.2-0.5-0.4c-0.4-0.9-1.4-1.6-2.6-1.7
								c-1.2-0.1-2.3,0.3-2.9,1.1c-0.6,0.8-0.6,2,0,3.1s1.5,1.8,2.5,1.8c0.5,0,1,0,1.6-0.1c1.3-0.2,2.9-0.4,3.9,0.8
								c1.4,1.7,0.1,3.4-1.1,4.9c-0.9,1.2-1.9,2.4-1.7,3.5C65.7,265.7,66.2,266.2,66.8,266.6L66.8,266.6z"/>
							<path class="st2" d="M113.7,158.1c-0.5,0.1-0.9,0.3-1.3,0.5c-3.8,2-6.1,6.1-7.7,9.9c-0.3,0.7-0.6,1.5-0.4,2
								c0.3,0.9,1.2,0.9,3.2,0.6c1.4-0.2,2.9-0.3,4.2,0.3c0.2,0.1,0.3,0.2,0.3,0.4c1.2,3.1,1.1,7.5-1.9,9.8c-1.6,1.2-4,1.3-5.9,0.1
								c-1.3-0.8-2.1-1.9-2.2-3.2l-1-0.1c-0.4,1.8-0.3,3.7,0.1,5.5c0.1,0.3-0.1,0.6-0.4,0.8c-2.2,1.2-4.8,2.4-7.4,1.8
								c-1.6-0.4-3-1.6-3.6-3.2c-0.4-1.2-0.3-2.4,0.4-3.4c0.5-0.6,1.1-1,1.8-1.4c0.5-0.3,0.9-0.6,1.2-0.9c0.4-0.4,0.4-1.1,0.2-1.5
								c-0.1-0.2-0.2-0.2-0.3-0.2c-0.2,0-0.5,0.2-0.7,0.5c-0.2,0.2-0.4,0.3-0.6,0.4c-1,0.6-2.1,0.6-3.2-0.1c-1.5-1-2.4-3.2-2.1-4.9
								c0.5-2.6,2.7-4.9,5.2-5.4c2.1-0.4,4.4,0.3,5.9,1.8c0.6-3.5,0.9-7,0.7-10.6c0-1-0.1-2-0.5-2.9c-0.4-0.8-1.1-1.6-2.2-2.2
								c-2.7-1.7-6.1-1.8-8.7-1.7c-8.8,0.3-17.4,2.9-24.8,7.6c-1.2,0.8-1.7,1.4-1.7,2.1c0,0.7,0.6,1.2,1.3,1.9
								c0.6,0.6,1.4,1.2,1.7,2.1c0.7,1.9-0.6,3.5-1.7,4.9c-1,1.2-1.9,2.4-1.6,3.6c0.1,0.4,0.3,0.9,0.6,1.3c0.2,0.2,0.3,0.5,0.4,0.8
								c0.9,1.8,0.7,4.1-0.6,6s-3.2,3-5.3,2.9c-2-0.1-3.9-1.5-4.9-3.5c-0.7-1.4-0.9-2.9-0.5-4.2c-1.5,0.6-3.2,1.1-5,0.9
								c-1.5-0.2-2.8-1.1-3.6-2.4c-0.6-1-0.8-2.1-0.4-3.1c0.4-1.1,1.2-1.8,1.9-2.5l0.5-0.4c3.4-3.3,4.4-8.7,2.3-12.9
								c-0.2-0.4,0-0.8,0.3-0.9s0.8,0,0.9,0.3c2.3,4.8,1.2,10.9-2.6,14.6l-0.5,0.4c-0.7,0.6-1.3,1.2-1.5,1.9c-0.3,0.8,0,1.4,0.3,1.9
								c0.5,0.9,1.6,1.6,2.6,1.7c2,0.3,4.1-0.7,5.8-1.5c0.3-0.1,0.6-0.1,0.8,0.2s0.2,0.6,0,0.8c-0.8,1.2-0.9,3-0.1,4.6
								s2.2,2.6,3.7,2.8c1.5,0.1,3-0.8,4-2.2c1-1.5,1.2-3.2,0.5-4.6c-0.1-0.2-0.2-0.4-0.4-0.7c-0.3-0.5-0.7-1.1-0.8-1.8
								c-0.4-1.8,0.8-3.3,1.9-4.7c1-1.3,1.9-2.4,1.5-3.6c-0.2-0.6-0.8-1.1-1.3-1.6c-0.8-0.8-1.7-1.6-1.7-2.9c0-1.5,1.3-2.5,2.4-3.2
								c7.7-4.8,16.5-7.6,25.5-7.9c0.5,0,1.1,0,1.7,0c1.6,0.2,3.2,0.4,4.9,0.6c1,0.3,2,0.7,3,1.3c1.3,0.8,2.2,1.7,2.7,2.8
								c0.5,1.1,0.6,2.4,0.7,3.5c0.2,4.2-0.2,8.4-1.1,12.4c-0.1,0.3-0.3,0.5-0.6,0.5c-0.3,0-0.6-0.1-0.7-0.4c-1-1.8-3.3-2.8-5.3-2.4
								c-2.1,0.4-3.8,2.2-4.2,4.3c-0.2,1.2,0.4,2.8,1.5,3.5c0.6,0.4,1.1,0.4,1.7,0.1c0.2-0.1,0.3-0.2,0.4-0.3
								c0.4-0.3,0.9-0.8,1.5-0.8c0.7-0.1,1.3,0.3,1.6,1c0.4,0.9,0.2,2.3-0.5,3c-0.5,0.5-1,0.8-1.5,1.1c-0.5,0.3-1.1,0.6-1.4,1.1
								c-0.6,0.8-0.4,1.6-0.2,2.1c0.4,1.1,1.5,2.1,2.6,2.3c2,0.4,4.1-0.4,6-1.4c-0.4-2-0.3-4.2,0.2-6.2c0.1-0.3,0.4-0.6,0.7-0.5
								l2.3,0.1c0.2,0,0.4,0.1,0.5,0.2c0.1,0.1,0.2,0.3,0.2,0.5c-0.2,1.4,1,2.3,1.5,2.6c1.2,0.7,3.1,0.9,4.4-0.1
								c2.4-1.8,2.5-5.3,1.6-7.9c-0.9-0.3-2-0.2-3.2-0.1c-1.8,0.2-3.9,0.5-4.6-1.5c-0.4-1.1,0-2.2,0.4-3.1c1.8-4,4.1-8.4,8.4-10.6
								c0.4-0.2,0.8-0.3,1.2-0.4C113.1,157.3,113.4,157.7,113.7,158.1L113.7,158.1z"/>
							<path class="st2" d="M26.8,255.9c0.3-0.1,0.6-0.2,0.9-0.3c1.8-0.4,3.6,0,4.8,1.2c1.3,1.3,1.8,3.4,1.1,5.4
								c-0.6,1.6-1.7,2.7-3.1,3.1l0.1,3c1.3,0.3,2.7-0.5,4.2-1.3c1.8-1,3.9-2.2,5.9-1.1c1.1,0.6,1.7,1.6,1.9,2.7
								c-0.5,0.2-0.9,0.4-1.3,0.7c-0.1-1-0.5-1.7-1.2-2.2c-1.3-0.7-2.9,0.1-4.6,1.1c-1.8,1-3.8,2.1-5.8,1.3
								c-0.2-0.1-0.4-0.4-0.4-0.6l-0.1-4.1c0-0.4,0.3-0.7,0.6-0.7c1.1-0.1,2.1-1,2.6-2.3c0.5-1.5,0.2-3-0.7-3.9
								c-0.9-0.8-2.2-1.1-3.6-0.8c-0.6,0.1-1.1,0.4-1.6,0.7C26.6,257,26.7,256.5,26.8,255.9L26.8,255.9z"/>
							<path class="st2" d="M103.3,267.9c-0.5,0.2-1,0.3-1.5,0.5c-0.3-0.3-0.6-0.5-0.9-0.7c-1.6-0.9-3.6-1.2-5.5-1.5
								c-0.3,0-0.5-0.2-0.6-0.5c-0.5-1.9,0.2-4.1,1.8-5.7c1.6-1.6,3.8-2.3,5.7-1.8c0.3,0.1,0.7,0.2,1,0.3c0.7,0.3,1.4,0.5,2.1,0.3
								c0.8-0.2,1.3-1.1,1.8-2.1c0.4-0.9,0.9-1.7,1.7-2.4c1-0.8,2.3-1,3.7-0.5c1.9,0.7,3.6,2.7,4,4.8c0.3,1.7,0.2,3.4,0,5.1
								c0,0.3,0,0.5-0.1,0.8c-0.5,0-0.9,0-1.4,0c0-0.3,0-0.6,0.1-0.9c0.2-1.6,0.3-3.2,0-4.7c-0.3-1.6-1.7-3.2-3.1-3.7
								c-0.6-0.2-1.5-0.3-2.3,0.3c-0.6,0.4-0.9,1.2-1.3,1.9c-0.6,1.1-1.3,2.4-2.7,2.8c-1,0.3-2-0.1-2.9-0.4
								c-0.3-0.1-0.6-0.2-0.9-0.3c-1.4-0.4-3.1,0.2-4.4,1.4c-1.1,1.1-1.7,2.6-1.5,3.9c1.8,0.3,3.8,0.6,5.5,1.6
								C102.2,266.8,102.8,267.3,103.3,267.9L103.3,267.9z"/>
							<path class="st2" d="M39.3,201.6c-0.1,0.2-0.2,0.4-0.4,0.4c-1,0.4-2.7,1.4-2.6,2.5c0.1,1,1.2,1.3,2.9,1.8
								c0.6,0.1,1.1,0.3,1.6,0.5c1.3,0.5,2.5,1.7,3.1,3.1c0.5,1.3,0.5,2.7,0,3.9c-0.6,1.3-2,2.3-3.6,2.5c-1.5,0.2-2.9-0.3-3.8-1.3
								c-0.2-0.2-0.3-0.4-0.5-0.7c-0.3-0.4-0.6-0.8-0.9-1c-0.2-0.1-0.4-0.1-0.7,0.2c-0.5,0.5-0.8,1.5-0.6,2.2
								c0.1,0.5,0.4,1.1,0.6,1.6c0.5,1,0.9,2,0.8,3.2c-0.1,2.2-2.1,3.8-3.9,4.3c0-0.5,0.1-1,0.1-1.6c1.2-0.5,2.3-1.5,2.4-2.8
								c0-0.8-0.3-1.7-0.7-2.6c-0.3-0.6-0.5-1.2-0.7-1.9c-0.3-1.2,0.1-2.8,1-3.6c0.6-0.6,1.4-0.7,2.2-0.4c0.8,0.3,1.2,0.9,1.6,1.5
								c0.1,0.2,0.3,0.4,0.4,0.6c0.6,0.7,1.5,1,2.5,0.8c1.1-0.1,2.1-0.8,2.5-1.7c0.4-0.8,0.4-1.8,0-2.8c-0.4-1.1-1.3-1.9-2.3-2.3
								c-0.5-0.2-1-0.3-1.5-0.4c-1.7-0.4-3.6-0.9-3.9-2.9c-0.2-1.1,0.3-2.6,3.1-3.9c0.3-1.5-0.5-3.1-1.9-3.7
								c-0.9-0.4-1.9-0.3-2.8,0.2v0c0-0.5,0-1,0.1-1.6c1.1-0.3,2.3-0.3,3.3,0.1C38.8,196.8,40,199.3,39.3,201.6L39.3,201.6z"/>
							<path class="st2" d="M118,211.2c0.5-0.9,1.4-1.5,2.2-2l0.5-0.3c0.5-0.3,1-0.7,1.4-1.1c0,0.6,0.1,1.1,0.1,1.7
								c-0.2,0.2-0.4,0.4-0.7,0.6l-0.5,0.3c-0.7,0.4-1.4,0.9-1.7,1.5c-0.7,1.2,0.2,2.9,1.4,3.5c0.5,0.3,1.1,0.4,1.7,0.6
								c0,0.5,0,0.9,0,1.4c-0.8-0.1-1.7-0.3-2.4-0.8C118.1,215.6,116.9,213.1,118,211.2L118,211.2z"/>
							<path class="st2" d="M106.6,210.4c-0.5,0-1.1,0-1.6,0.1c-0.9,0.1-1.8,0.2-2.7,0c-1.2-0.3-2.2-1.3-2.7-2.6
								c-0.6-1.6-0.4-3.4,0.5-4.7c1.7-2.5,4.9-3.2,7.4-2.9c2.1,0.2,4.3,1.4,5.4,3c0.6,0.9,0.8,1.9,0.7,2.8c0.1,0,0.2,0,0.4-0.1
								c0.6-0.3,1.2-1,1.3-1.7c0.1-0.6,0.1-1.2,0.1-1.8c0-0.9,0-1.9,0.3-2.8c0.4-1.2,1.3-2.2,2.6-2.7c1-0.4,2.1-0.5,3.1-0.3
								c0,0.5,0.1,1,0.1,1.5c-0.8-0.3-1.8-0.2-2.7,0.1c-0.9,0.4-1.6,1-1.8,1.9c-0.2,0.7-0.2,1.5-0.2,2.3c0,0.7,0,1.4-0.1,2.1
								c-0.2,1.2-1.1,2.3-2.2,2.8c-0.8,0.3-1.5,0.2-2.1-0.2c-0.2-0.2-0.3-0.5-0.3-0.8c0.2-0.8,0.1-1.5-0.4-2.3
								c-0.8-1.3-2.6-2.2-4.4-2.4c-2-0.2-4.7,0.3-6.1,2.3c-0.6,0.9-0.8,2.3-0.3,3.4c0.2,0.5,0.7,1.4,1.8,1.7c0.7,0.2,1.4,0.1,2.2,0
								c0.6-0.1,1.2-0.1,1.9-0.1c1.1,0.1,2.3,0.8,2.8,1.8c0.4,0.7,0.4,1.4,0,2c-0.1,0.1-0.2,0.2-0.4,0.3c-2.7,0.9-5.2,3.7-4.7,6.8
								c0.2,1.4,1.4,2.7,2.9,3.3c1.1,0.4,2.2,0.3,3-0.2c-0.2-1.4-0.4-3,0.2-4.6c0.4-1,1.3-1.9,2.3-2.3c0.8-0.3,1.6-0.3,2.4,0
								c2,0.9,2,3.1,2,5c0,1,0,2,0.2,2.8c0.4,1.3,1.7,2,2.7,2.1c0.7,0.1,1.5,0.1,2.2-0.3c0,0.5,0,1,0.1,1.4
								c-0.8,0.3-1.6,0.3-2.5,0.2c-1.9-0.3-3.4-1.5-3.8-3.1c-0.3-1-0.3-2.1-0.3-3.2c0-2-0.1-3.2-1.1-3.7c-0.5-0.2-1-0.1-1.3,0
								c-0.7,0.3-1.2,0.9-1.5,1.5c-0.5,1.3-0.3,2.9-0.1,4.2c0,0.2-0.1,0.5-0.2,0.6c-1.2,1.1-3,1.3-4.7,0.7c-2-0.8-3.5-2.5-3.8-4.4
								c-0.6-3.6,2.2-6.9,5.3-8.2c0-0.1,0-0.3-0.1-0.5C108,210.9,107.3,210.5,106.6,210.4L106.6,210.4z"/>
						</g>
						<path class="st8" d="M44.7,258.5c0.1,0,0.1,0,0.2-0.1c3.5-4.2,8.5-30.9,8.7-32c0-0.1-0.1-0.3-0.2-0.3c-0.1,0-0.3,0.1-0.3,0.2
							c0,0.3-5.2,27.7-8.6,31.8c-0.1,0.1-0.1,0.3,0,0.4C44.6,258.5,44.7,258.6,44.7,258.5L44.7,258.5z"/>
						<path class="st8" d="M94.7,254L94.7,254c0.2,0,0.3-0.1,0.3-0.3l-4.9-48.2c0-0.1-0.1-0.2-0.2-0.2h0c-0.1,0-0.2,0.1-0.2,0.3
							l4.9,48.2C94.4,253.9,94.5,254,94.7,254L94.7,254z"/>
						<path class="st8" d="M110.3,251.3c0.1,0,0.1,0,0.2-0.1c0.1-0.1,0.1-0.3,0-0.4c-6.8-6.1-14.8-34.9-14.8-35.2
							c0-0.1-0.2-0.2-0.3-0.2c-0.1,0-0.2,0.2-0.2,0.3c0.3,1.2,8.1,29.3,15,35.5C110.2,251.2,110.2,251.3,110.3,251.3z"/>
						<path class="st2" d="M71.4,204.7c-1.7-0.5-2.9-1.4-3.4-2.6c-0.4-0.9-0.3-1.8-0.2-2.6c0-0.3,0.1-0.6,0-1c0-0.8-0.4-1.6-0.9-1.6
							c-0.3,0-0.7,0.3-1.1,0.6l-0.4,0.3c-2,1.3-5,1.3-6.9-0.1c-2-1.5-2.8-4.2-2.1-6.5c0.2-0.8,0.6-1.3,1.1-1.7
							c0.8-0.6,1.6-0.4,2.3-0.4l6.4,0.4c0.5,0,0.6-0.1,0.6-0.1c0.1-0.2-0.4-0.9-0.7-1.2c-1.5-2.1-1.5-5.2,0.1-7.1c1.6-2,5-2.6,7-1.1
							c1.1,0.8,1.8,2.1,1.8,3.6c0.1,0.8-0.1,1.6-0.4,2.3c0.6-0.1,1.4-0.4,2.1-0.7c1.3-0.6,2.9-1.1,4.2-0.7c1.5,0.4,2.7,1.8,3.4,4.1
							c0.7,2.1,0.4,3.9-0.7,4.8c-1.1,1-2.8,0.8-4.5,0.4c-1.2-0.3-2.1-0.6-3.1,0c0,0,0,0.1,0.2,0.4c0.3,0.6,0.8,1.1,1.3,1.7
							c1,1.2,2.1,2.5,2.2,4.2c0.1,1.9-1.1,3.7-2.9,4.6c-0.9,0.4-1.8,0.6-2.9,0.6C73,205,72.2,204.9,71.4,204.7L71.4,204.7z
							 M79.5,191.9c1.3,0.3,2.4,0.5,3,0c0.8-0.7,0.4-2.4,0.2-3.1c-0.3-1.2-1-2.6-2.2-3c-0.9-0.2-2,0.2-3.1,0.7
							c-1.5,0.6-3.2,1.2-4.6,0.5c-0.2-0.1-0.4-0.4-0.5-0.6s0.1-0.6,0.3-0.7c0.6-0.5,0.8-1.3,0.8-2.2c-0.1-0.9-0.5-1.8-1.2-2.3
							c-1.3-1-3.7-0.6-4.7,0.8c-1.1,1.4-1.1,3.6,0.1,5.2c0.5,0.7,1.3,1.9,0.6,3c-0.4,0.7-1.4,0.9-2.4,0.9l-6-0.4c-0.5,0-1,0-1.2,0.1
							c-0.2,0.1-0.3,0.4-0.5,0.8c-0.5,1.7,0.1,3.6,1.5,4.7c1.3,1,3.5,1.1,4.9,0.1l0.3-0.2c0.5-0.4,1.2-0.9,2.1-0.9l0,0
							c1.6,0,2.6,1.7,2.6,3.3c0,0.4,0,0.7-0.1,1.1c-0.1,0.7-0.1,1.4,0.1,1.9c0.4,1,1.6,1.4,2.3,1.6c1.5,0.4,2.9,0.3,4.1-0.2
							c1.2-0.6,2-1.8,1.9-3c-0.1-1.2-0.9-2.2-1.8-3.3c-0.5-0.6-1-1.2-1.4-1.9c-0.1-0.2-0.6-1-0.3-1.7c0.1-0.4,0.4-0.8,0.9-1
							c0.5-0.3,1.1-0.4,1.8-0.4C77.9,191.5,78.7,191.7,79.5,191.9L79.5,191.9z"/>
					</g>
					<path class="st2" d="M62.7,68c-8.3,1-21.3,4.7-26.4,8.6c-5.1,3.8-7.6,14.3-12.7,20.4s-7.5,8.9-7.5,8.9s10.3,15.1,26.6,14.4
						c16.3-0.7,59.7-1.4,59.7-1.4l3.5-9.4l5.8,14.3c0,0,16,1.3,25.8-17.5c0,0-15.1-31.1-23.8-33.6s-26.4-5.9-26.4-5.9L62.7,68
						L62.7,68z"/>
					<path class="st7" d="M67.2,57c0,0-0.1,9.2-0.9,9.7c-0.8,0.5-3.6,1.3-3.6,1.3s1.4,7.7,13.1,7.1c11.7-0.7,11.4-8.1,11.4-8.1
						s-3.6-0.6-4.2-1.4s0.1-11.4,0.1-11.4L67.2,57L67.2,57z"/>
					<path class="st12" d="M63.6,42.1c0,0-3.8-3.9-7-2.8c-3.2,1.2-3.7,8.1-0.2,9.4c3.5,1.3,7.6-1.4,7.6-1.4L63.6,42.1z"/>
					<path class="st8" d="M57.4,47.3c0,0,0.1,0,0.1-0.1c0-0.1,0-0.2-0.1-0.2c-0.1,0-2-0.9-1.4-3.2c0.2-1,0.6-1.6,1.2-1.9
						c0.7-0.4,1.7-0.3,3.4,0.2c0.1,0,0.2,0,0.2-0.1c0-0.1,0-0.2-0.1-0.2c-1.8-0.6-2.9-0.7-3.7-0.2c-0.6,0.3-1,1-1.3,2
						C55.1,46.3,57.3,47.3,57.4,47.3C57.3,47.3,57.4,47.3,57.4,47.3z"/>
					<path class="st8" d="M67.1,60.5l0.1-5.1l9.3,0.4l3.7-2.8l3-1.5C79.1,62.9,69.7,61.5,67.1,60.5z"/>
					<path class="st7" d="M60.4,27.4c-0.8,2.7-0.6,6.6,0,12.1c0.9,7.6,1.3,17.6,11.9,19.4c4.8,0.8,8.6-1.2,11.2-3.6
						c3.1-2.7,5-6.5,5.8-10.5l2.2-11.4c1.6-8.1-3.8-14.2-11.9-15.6c-0.2,0-0.4-0.1-0.6-0.1C63.2,15.6,60.5,27.4,60.4,27.4L60.4,27.4
						z"/>
					<path class="st8" d="M73.5,45.7c0,0,0.1,0,0.1-0.1c0-0.1,0-0.2-0.1-0.2c-0.6-0.3-1.1-1.2-1.2-2.2c0-0.5,0.2-0.9,0.6-1.4
						c0.3-0.4,0.6-0.8,0.9-1.5c0-0.1,0-0.2-0.1-0.2c-0.1,0-0.2,0-0.2,0.1c-0.3,0.6-0.6,1.1-0.9,1.4c-0.4,0.5-0.7,1-0.7,1.6
						C72.2,44.4,72.8,45.3,73.5,45.7C73.4,45.7,73.5,45.7,73.5,45.7L73.5,45.7z"/>
					<path class="st8" d="M79.5,39.6c0-0.9,0.2-1.6,0.6-1.7c0.4,0,0.7,0.7,0.7,1.6c0,0.9-0.2,1.6-0.6,1.7S79.5,40.5,79.5,39.6z"/>
					<path class="st8" d="M67.1,39.7c0-0.9,0.2-1.6,0.6-1.7s0.7,0.7,0.7,1.6c0,0.9-0.2,1.6-0.6,1.7C67.5,41.3,67.1,40.6,67.1,39.7z"
						/>
					<path class="st2" d="M75,48.7c0.6-0.3,1.1-0.7,1.6-1c1.5-1,3.3-1.6,4.8-0.4c0.3,0.2,0.6,0.6,0.8,1c0.6,1.5-0.8,2.9-1.8,3.8
						c-1.2,1.1-2.7,1.7-4.3,1.9c-1.7,0.1-3.4-0.3-4.7-1.3c-0.2-0.2-0.5-0.4-0.6-0.6c-0.4-0.7-0.1-1.5,0.6-2c0.8-0.5,1.8-0.5,2.6-0.8
						C74.3,49,74.6,48.9,75,48.7L75,48.7z"/>
					<path class="st8" d="M82.4,37.3c0.1,0,0.2,0,0.2-0.1c0.1-0.1,0.2-0.3,0-0.5c-1.5-1.7-3.4-1.2-4.3-0.6c-0.2,0.1-0.2,0.3-0.1,0.5
						c0.1,0.2,0.3,0.2,0.5,0.1c0.1,0,1.9-1.2,3.4,0.5C82.2,37.3,82.3,37.3,82.4,37.3L82.4,37.3z"/>
					<path class="st8" d="M69.6,36.4c0.1,0,0.2-0.1,0.2-0.1c0.1-0.2,0.1-0.4-0.1-0.5c-1.8-1.4-3.6-0.5-4.3,0.2
						c-0.1,0.1-0.2,0.3,0,0.5c0.1,0.1,0.3,0.2,0.5,0c0.1-0.1,1.7-1.5,3.4-0.2C69.4,36.4,69.5,36.5,69.6,36.4z"/>
					<path class="st8" d="M85.3,160.1c0,0-41.7,5.4-48.6,6.9c0.6-2.1,1.3-4.2,2.1-6.4c0,0,3.2-3.9,6.1-7.3c0.7-0.2,1.3-0.4,1.5-0.4
						c0.9,0,10.9-0.2,10.9-0.2L85.3,160.1L85.3,160.1z"/>
					<path class="st11" d="M53.9,92.7C53.9,92.7,54,92.7,53.9,92.7c0.3,0,0.4-0.2,0.4-0.5c-1.1-8.5-1.9-22.2,0.8-22.7
						c0.2-0.1,0.4-0.3,0.3-0.5s-0.3-0.4-0.5-0.3c-4.2,0.8-1.9,19.8-1.4,23.6C53.5,92.5,53.7,92.7,53.9,92.7L53.9,92.7z"/>
					<path class="st11" d="M99.7,93.9c0.2,0,0.4-0.2,0.4-0.4c0.3-5.6,1-24-1.8-25c-0.2-0.1-0.5,0-0.5,0.3c-0.1,0.2,0,0.5,0.3,0.5
						c1.5,0.5,1.8,12.7,1.2,24.1C99.3,93.7,99.4,93.9,99.7,93.9L99.7,93.9z"/>
					<path class="st8" d="M45.4,102.9c0.1,0,0.2-0.1,0.2-0.2c0-0.7-1.7-7.4-1.9-8.2c0-0.1-0.2-0.2-0.3-0.2c-0.1,0-0.2,0.2-0.2,0.3
						c0.8,3,1.9,7.6,1.9,8.1C45.2,102.8,45.3,102.9,45.4,102.9L45.4,102.9z"/>
					<path class="st8" d="M44.7,99.4c0.1,0,0.1,0,0.2-0.1c0.1-0.1,0.1-0.3,0-0.4l-2.1-2.1c-0.1-0.1-0.3-0.1-0.4,0
						c-0.1,0.1-0.1,0.3,0,0.4l2.1,2.1C44.6,99.3,44.7,99.4,44.7,99.4z"/>
					<path class="st8" d="M106.3,103.1c0.1,0,0.2-0.1,0.2-0.2c0-1.8,3.3-4.8,3.4-4.8c0.1-0.1,0.1-0.2,0-0.4c-0.1-0.1-0.2-0.1-0.4,0
						c-0.1,0.1-3.6,3.2-3.6,5.2C106,102.9,106.1,103.1,106.3,103.1L106.3,103.1z"/>
					<path class="st8" d="M114.1,120.9c0,0,0.1,0,0.1,0.1c6.3,1.1,15.2-7.2,15.6-7.5c0.1-0.1,0.1-0.2,0-0.4c-0.1-0.1-0.2-0.1-0.4,0
						c-0.1,0.1-9.1,8.4-15.1,7.4c-0.1,0-0.3,0.1-0.3,0.2C114,120.8,114,120.9,114.1,120.9z"/>
					<path class="st8" d="M39.7,118.1c0.1,0,0.2-0.1,0.2-0.2c0-0.1-0.1-0.3-0.2-0.3c-11.7-2.2-16.8-13.1-16.8-13.2
						c-0.1-0.1-0.2-0.2-0.3-0.1c-0.1,0.1-0.2,0.2-0.1,0.3C22.5,104.8,27.7,115.9,39.7,118.1C39.7,118.1,39.7,118.1,39.7,118.1
						L39.7,118.1z"/>
					<path class="st8" d="M74.9,77.8c7.7,0,13.1-7,13.2-7.1c0.1-0.1,0.1-0.3-0.1-0.3s-0.3-0.1-0.3,0.1c-0.1,0.1-6.8,8.7-15.7,6.5
						c-0.1,0-0.3,0.1-0.3,0.2s0.1,0.3,0.2,0.3C72.9,77.7,74,77.8,74.9,77.8L74.9,77.8z"/>
					<path class="st9" d="M90,42.4c-0.8-2.9-15.9-11.4-15.5-16.3c0,0-1.3,3.7-2.9,5.2s-3.4,2.1-3.4,2.1s5.1-3.8,5-7.1
						c0,0-3.1,4-4.6,4.7c-1.5,0.7-7.2,6.4-8.1,9.5c0,0-3-6.9-2.2-11.4c0.8-4.5,6.3-12.1,14.2-13.4c7.9-1.2,18.8,4.4,20.8,11.9
						S90,42.4,90,42.4L90,42.4z"/>
					<path class="st7" d="M88.3,42c0,0,3.4-4.2,6.8-3.4c3.3,0.8,4.4,7.7,1.1,9.4s-7.7-0.7-7.7-0.7L88.3,42L88.3,42z"/>
					<path class="st8" d="M95,46.5C95,46.5,95,46.5,95,46.5c0.1,0,2.2-1.2,1.3-3.7c-0.4-1-0.8-1.6-1.5-1.9c-0.8-0.3-1.9-0.2-3.6,0.6
						c-0.1,0-0.1,0.1-0.1,0.2c0,0.1,0.1,0.1,0.2,0.1c1.7-0.7,2.7-0.9,3.4-0.6c0.6,0.2,1,0.8,1.3,1.8c0.8,2.3-1.1,3.3-1.1,3.4
						c-0.1,0-0.1,0.1-0.1,0.2C94.9,46.5,94.9,46.5,95,46.5L95,46.5z"/>
					<path class="st13" d="M54.8,52.7c0-2.2,1.8-3.9,4-3.9s4,1.8,4,3.9s-1.8,3.9-4,3.9S54.8,54.9,54.8,52.7z M55.6,52.7
						c0,1.7,1.4,3.1,3.1,3.1s3.1-1.4,3.1-3.1s-1.4-3.1-3.1-3.1S55.6,51,55.6,52.7z"/>
					<path class="st13" d="M88.8,51.8c0-2.2,1.8-4,3.9-4s3.9,1.8,3.9,4s-1.8,3.9-3.9,3.9S88.8,54,88.8,51.8z M89.7,51.8
						c0,1.7,1.4,3.1,3.1,3.1s3.1-1.4,3.1-3.1s-1.4-3.1-3.1-3.1S89.7,50.1,89.7,51.8z"/>
					<path class="st9" d="M68.3,19.7c0,0-6-1.3-4.4-6.2c1.5-4.9,5.2-5.2,8.1-4.1c0,0-6.2-9,2.7-9.4c8.9-0.4,13.5,3.4,10.6,7.3
						l-2.9,3.9c0,0,6-0.8,6.9,3.6s-5.2,6-5.2,6L68.3,19.7L68.3,19.7z"/>
					<path class="st2" d="M87.2,19.9c0.1,0,0.2,0,0.2-0.1c0.1-0.1,0-0.3-0.1-0.4c-6.8-4.3-11.3-2.8-12-2.5c-1.8-0.9-4-0.2-8.7,1.1
						l-0.6,0.2c-0.1,0-0.2,0.2-0.2,0.3s0.2,0.2,0.3,0.2l0.6-0.2c4.7-1.4,6.8-2,8.5-1.1c0.1,0,0.2,0,0.2,0c0,0,4.6-2.1,11.7,2.4
						C87,19.9,87.1,19.9,87.2,19.9L87.2,19.9z"/>
					<path class="st9" d="M64.8,17.9c0.1,0,0.1,0,0.2-0.1c0.2-0.1,0.3-0.4,0.2-0.6c-1.3-2.3-1.6-4.9-0.6-7.1C65.1,8.9,66.1,8,67,7.8
						c2.2-0.4,2.8-0.2,2.8-0.1c0.2,0.1,0.4,0.1,0.5,0c0.2-0.1,0.2-0.4,0.1-0.5c0,0-1.7-2.8-0.7-4.5c0.7-1.2,2.5-1.7,5.4-1.5
						c0.2,0,0.4-0.2,0.4-0.4c0-0.2-0.2-0.4-0.4-0.4C71.9,0,69.9,0.7,69,2.1c-0.9,1.5-0.2,3.5,0.3,4.6c-0.5,0-1.3,0-2.4,0.3
						c-1.2,0.2-2.3,1.3-3,2.8c-1.1,2.4-0.8,5.3,0.6,7.8C64.6,17.8,64.7,17.9,64.8,17.9L64.8,17.9z"/>
					<g>
						<path class="st7" d="M1.1,227.5c0.1-0.4,0.3-0.7,0.6-1l11-10.6c1-1,2.6-0.9,3.6,0.1c1,1,0.9,2.6-0.1,3.6l-11,10.6
							c-1,1-2.6,0.9-3.6-0.1C1,229.4,0.8,228.4,1.1,227.5z"/>
						<path class="st8" d="M18.9,236.3L18.9,236.3l2.6-4.8c0-0.1,0.1-0.1,0.2-0.1l0.6,0.1c0.1,0,0.2,0.1,0.1,0.2
							c0,0.1-0.1,0.2-0.2,0.1l-0.5,0l-2.5,4.7c0,0.1-0.1,0.1-0.2,0.1S18.8,236.4,18.9,236.3L18.9,236.3z"/>
						<path class="st7" d="M15,241.4c0.1-0.2,0.1-0.3,0.2-0.5l7.3-13.5c0.9-1.6,2.9-2.3,4.6-1.4c1.6,0.9,2.3,2.9,1.4,4.6l-7.3,13.5
							c-0.9,1.6-2.9,2.3-4.6,1.4C15.1,244.6,14.4,242.9,15,241.4z"/>
						<path class="st7" d="M4.6,233.6c0.1-0.2,0.1-0.3,0.2-0.5l7.3-13.5c0.9-1.6,2.9-2.3,4.6-1.4c1.6,0.9,2.2,2.9,1.4,4.6l-7.3,13.5
							c-0.9,1.6-2.9,2.3-4.6,1.4C4.7,236.9,4,235.1,4.6,233.6z"/>
						<path class="st7" d="M7.6,238.9c0.1-0.3,0.2-0.5,0.4-0.7l9.8-15.1c1-1.6,3.1-2,4.7-1c1.6,1,2,3.1,1,4.7l-9.8,15.1
							c-1,1.6-3.1,2-4.7,1C7.6,242,7.1,240.3,7.6,238.9L7.6,238.9z"/>
						<path class="st7" d="M33,213.1c0.9,4.7,1.5,7.4,2.2,8.6s1.6,10,2.6,13.6c0.9,3.3-1.2,5.9-4.4,2.9c-3-2.8-2.5-11.2-3.1-10.2
							c-2,3.1-2.7,4.3-2.7,4.3l-13.4-9.1l-1.4-3.5l4.4-6.6L33,213.1L33,213.1z"/>
						<path class="st7" d="M32.7,209.8c0,0,0.8,8-0.7,10c-4.1,5.6-6.7,7.4-6.7,7.4s-16.1-1.9-15.2-5.3c0.9-3.2,9.5-18.7,9.5-18.7
							L32.7,209.8L32.7,209.8z"/>
						<g>
							<path class="st8" d="M24.8,228.6C24.8,228.6,24.8,228.5,24.8,228.6c-0.1-0.1-0.1-0.2,0-0.2l1.9-0.8c0.1,0,0.1,0,0.2,0.1
								s0,0.1-0.1,0.2l-1.9,0.8C24.9,228.6,24.8,228.6,24.8,228.6z"/>
							<path class="st8" d="M25.7,226.9C25.7,226.9,25.7,226.9,25.7,226.9c-0.2,0-0.2,0.1-0.2,0.1l0.3,2c0,0.1,0.1,0.1,0.2,0.1
								c0.1,0,0.1-0.1,0.1-0.2L25.7,226.9C25.8,227,25.8,226.9,25.7,226.9L25.7,226.9z"/>
						</g>
						<g>
							<path class="st8" d="M20.1,224.9C20.1,224.9,20.1,224.8,20.1,224.9c-0.1-0.1-0.1-0.2,0-0.2l1.9-0.8c0.1,0,0.1,0,0.2,0.1
								s0,0.1-0.1,0.2l-1.9,0.8C20.2,224.9,20.2,224.9,20.1,224.9z"/>
							<path class="st8" d="M21,223.2C21,223.2,21,223.2,21,223.2c-0.2,0-0.2,0.1-0.2,0.1l0.3,2c0,0.1,0.1,0.1,0.2,0.1
								c0.1,0,0.1-0.1,0.1-0.2L21,223.2C21.1,223.3,21.1,223.2,21,223.2L21,223.2z"/>
						</g>
						<g>
							<path class="st8" d="M15.5,222.1C15.5,222.1,15.4,222.1,15.5,222.1c-0.1-0.1-0.1-0.2,0-0.2l1.9-0.8c0.1,0,0.1,0,0.2,0.1
								s0,0.1-0.1,0.2l-1.9,0.8C15.6,222.1,15.5,222.2,15.5,222.1z"/>
							<path class="st8" d="M16.4,220.5C16.4,220.5,16.4,220.5,16.4,220.5c-0.2,0-0.2,0.1-0.2,0.1l0.3,2c0,0.1,0.1,0.1,0.2,0.1
								c0.1,0,0.1-0.1,0.1-0.2L16.4,220.5C16.5,220.6,16.4,220.5,16.4,220.5L16.4,220.5z"/>
						</g>
						<path class="st8" d="M35.4,234.7c0.5-0.1,1-0.3,1.1-0.3c0.1,0,0.2,0,0.2,0.1s0,0.2-0.1,0.2c0,0-1.2,0.3-1.6,0.5
							c0,0.3,0.7,1.8,1.3,2.4c0.2,0.1,0.3,0.2,0.4,0.1c0.1-0.1,0.2,0,0.2,0.1s0,0.2-0.1,0.2c-0.1,0.1-0.3,0.1-0.7-0.1
							c-0.7-0.4-1.6-2.2-1.6-2.7c0-0.2,0.1-0.2,0.2-0.3C34.9,234.9,35.1,234.8,35.4,234.7L35.4,234.7z"/>
						<path class="st8" d="M7.9,238.3C7.9,238.3,7.9,238.3,7.9,238.3c-0.1-0.1-0.1-0.1-0.1-0.2l6.2-9.5c0-0.1,0.1-0.1,0.2,0
							c0.1,0,0.1,0.1,0,0.2L8,238.2C8,238.2,7.9,238.3,7.9,238.3L7.9,238.3z"/>
						<path class="st8" d="M7.5,228.4C7.5,228.4,7.5,228.4,7.5,228.4c-0.1-0.1-0.1-0.1-0.1-0.2l2.7-3.9c0-0.1,0.1-0.1,0.2,0
							c0.1,0,0.1,0.1,0,0.2l-2.7,3.9C7.7,228.4,7.6,228.4,7.5,228.4z"/>
						<path class="st8" d="M15.6,242.7C15.6,242.7,15.6,242.7,15.6,242.7c0.2-0.1,0.2-0.1,0.3,0c0.4,1.4,2.1,1.4,2.5,1.4l1.5-2.9
							c-0.5-0.9-2.6-1.6-2.6-1.6c-0.1,0-0.1-0.1-0.1-0.2l0,0c0-0.1,0.1-0.1,0.2-0.1c0.1,0,2.4,0.7,2.8,1.8c0,0,0,0.1,0,0.1l-1.5,3
							c0,0-0.1,0.1-0.1,0.1C18.4,244.4,16,244.7,15.6,242.7C15.6,242.8,15.6,242.8,15.6,242.7L15.6,242.7z"/>
						<path class="st8" d="M8.3,239.7C8.3,239.7,8.4,239.6,8.3,239.7c0.2-0.1,0.2-0.1,0.3,0c0.4,1.4,2.1,1.4,2.5,1.4l1.5-2.9
							c-0.4-0.9-2.6-1.6-2.6-1.6c-0.1,0-0.1-0.1-0.1-0.2l0,0c0-0.1,0.1-0.1,0.2-0.1c0.1,0,2.3,0.7,2.8,1.8c0,0,0,0.1,0,0.1l-1.5,3
							c0,0-0.1,0.1-0.1,0.1C11.2,241.4,8.8,241.6,8.3,239.7C8.3,239.7,8.3,239.7,8.3,239.7L8.3,239.7z"/>
						<path class="st8" d="M4.6,234.3C4.6,234.3,4.7,234.3,4.6,234.3c0.2-0.1,0.2,0,0.2,0c0.2,1.5,1.9,1.7,2.3,1.8l1.9-2.6
							c-0.3-1-2.3-1.9-2.3-1.9c-0.1,0-0.1-0.1-0.1-0.2l0,0c0-0.1,0.1-0.1,0.2-0.1c0.1,0,2.2,1,2.5,2.2c0,0,0,0.1,0,0.1l-1.9,2.7
							c0,0-0.1,0.1-0.1,0.1C7.2,236.4,4.8,236.3,4.6,234.3C4.6,234.4,4.6,234.4,4.6,234.3L4.6,234.3z"/>
						<path class="st8" d="M1.4,227.1c0,0,0.1-0.1,0.1-0.1c0.1,0,0.1,0.1,0.1,0.1c-0.1,1.3,1.4,1.8,1.7,1.9l2-1.9
							c-0.1-0.9-1.7-2-1.7-2.1c0,0-0.1-0.1,0-0.2l0,0c0-0.1,0.1-0.1,0.2,0c0.1,0.1,1.7,1.3,1.8,2.3c0,0,0,0.1,0,0.1l-2.1,2
							c0,0-0.1,0-0.1,0C3.2,229.3,1.2,228.8,1.4,227.1C1.3,227.2,1.3,227.1,1.4,227.1L1.4,227.1z"/>
					</g>
					<path class="st11" d="M106.3,118.5c0,0,4.9-9.2,1.6-15.2s-8.3-11.1-8.3-11.1s-19,17.3-23.6,17.1S53.9,91,53.9,91
						s-9.7,9.2-11.6,15.5s2.3,14,2.3,14s-2.7,14.2-4,20.7c-1.4,6.5-7.8,22-7.8,22s-0.5,1.6,6.7-0.2s9-4.4,20.1-4.4
						s31.7,8.8,57.6,0.9C117.2,159.4,105.6,122.6,106.3,118.5L106.3,118.5z"/>
					<path class="st8" d="M96.7,158.5c2.2,0,4.3-0.1,6.3-0.4c0.1,0,0.2-0.1,0.2-0.3c0-0.1-0.2-0.2-0.3-0.2
						c-13.1,2.1-30.2-3.6-30.4-3.6c-0.1,0-0.3,0-0.3,0.2c0,0.1,0,0.3,0.2,0.3C72.5,154.4,84.9,158.5,96.7,158.5L96.7,158.5z"/>
					<path class="st8" d="M75.4,114.7c4.8,0,10.1-0.5,15.2-2.2c0.1,0,0.2-0.2,0.2-0.3c0-0.1-0.2-0.2-0.3-0.2
						c-15,4.8-31.9,0.1-32.1,0c-0.1,0-0.3,0-0.3,0.2s0,0.3,0.2,0.3C58.3,112.6,65.9,114.7,75.4,114.7L75.4,114.7z"/>
					<path class="st8" d="M66.3,118.3C66.3,118.3,66.4,118.3,66.3,118.3c4.6-0.9,16.3-0.2,16.4-0.2l0,0c0.1,0,0.2-0.1,0.3-0.2
						c0-0.1-0.1-0.3-0.2-0.3c-0.5,0-11.9-0.7-16.5,0.2c-0.1,0-0.2,0.2-0.2,0.3C66.1,118.2,66.2,118.3,66.3,118.3L66.3,118.3z"/>
					<g>
						<path class="st1" d="M59.3,107.1h36.3c2.4,0,4.4,2,4.4,4.4v49.3c0,2.4-2,4.4-4.4,4.4H59.3c-2.4,0-4.4-2-4.4-4.4v-49.3
							C54.9,109.1,56.9,107.1,59.3,107.1z"/>
						<path class="st14" d="M81.3,105.3c0.3-0.5,0.4-1,0.4-1.6c0-1.9-1.5-3.4-3.4-3.4s-3.4,1.5-3.4,3.4c0,0.6,0.2,1.1,0.4,1.6h-7.7
							v3.6h21.2v-3.6H81.3L81.3,105.3z M76.7,103.7c0-0.9,0.7-1.6,1.6-1.6s1.6,0.7,1.6,1.6s-0.7,1.6-1.6,1.6l0,0
							C77.5,105.3,76.7,104.6,76.7,103.7z"/>
					</g>
					<path class="st7" d="M147.4,152.7c0.4-5.3-1.1-13.4-7.2-28.2c-8.1,2.2-16.2,4.3-24.2,6.6c1.7,4.1,3,7.4,3.9,10.1
						c-8.8-2.5-21.6-7-33.5-12L76.7,152c0.5,0.2,13,5.5,26.1,9.9c8,2.7,18.2,6.1,26.9,6.1c1.1,0,2.3-0.1,3.4-0.2
						C135.5,161.2,141.3,155.7,147.4,152.7L147.4,152.7z"/>
					<path class="st7" d="M133.1,167.8c5.7-0.7,10.4-3.2,12.8-9.1c0.7-1.7,1.3-3.6,1.4-6.1C141.3,155.7,135.5,161.1,133.1,167.8
						L133.1,167.8z"/>
					<g>
						<path class="st7" d="M63.8,158.1c0.4,0,0.8,0,1.2-0.2l15-6.3c1.4-0.6,2-2.1,1.4-3.5c-0.6-1.4-2.2-2-3.5-1.4l-15,6.3
							c-1.4,0.6-2,2.1-1.4,3.5C62,157.4,62.9,158,63.8,158.1z"/>
						<path class="st8" d="M62.8,137.1L62.8,137.1l5.8-0.5c0.1,0,0.1-0.1,0.2-0.1l0.2-0.6c0-0.1,0-0.2-0.1-0.2c-0.1,0-0.2,0-0.2,0.1
							l-0.2,0.6l-5.7,0.5c-0.1,0-0.2,0.1-0.2,0.2C62.6,137,62.7,137.1,62.8,137.1L62.8,137.1z"/>
						<path class="st7" d="M56.2,138.7c0.2,0,0.4,0,0.6,0l16.3-1.4c2-0.2,3.4-1.9,3.3-3.9c-0.2-2-1.9-3.5-3.9-3.3l-16.3,1.4
							c-2,0.2-3.4,1.9-3.3,3.9C53,137.2,54.5,138.6,56.2,138.7z"/>
						<path class="st7" d="M59.4,152.2c0.2,0,0.4,0,0.6,0l16.3-1.4c2-0.2,3.4-1.9,3.3-3.9c-0.2-2-1.9-3.4-3.9-3.3L59.4,145
							c-2,0.2-3.4,1.9-3.3,3.9C56.2,150.7,57.7,152,59.4,152.2z"/>
						<path class="st7" d="M55.5,147c0.3,0,0.6,0,0.9,0l18.9-3.2c2-0.3,3.3-2.2,2.9-4.1s-2.2-3.3-4.1-2.9l-18.9,3.2
							c-2,0.3-3.3,2.2-3,4.1C52.5,145.7,53.8,146.9,55.5,147L55.5,147z"/>
						<path class="st7" d="M91.4,133.2c-4.2-2.8-6.5-4.6-7.5-5.8c-1-1.2-9-5.8-12.1-8.3c-2.9-2.3-6.3-1.3-4.7,3.1
							c1.4,4,9.9,7.2,8.7,7.3c-3.9,0.6-5.3,0.9-5.3,0.9l3.2,16.9l2.8,2.8l8.3-1.4L91.4,133.2L91.4,133.2z"/>
						<path class="st7" d="M94.5,134.8c0,0-7.5-4.2-10-3.6c-7.2,1.6-10,3.4-10,3.4s-5,16.5-1.3,17c3.5,0.5,22.3-1.4,22.3-1.4
							L94.5,134.8L94.5,134.8z"/>
						<g>
							<path class="st8" d="M72.8,134.6C72.8,134.6,72.8,134.6,72.8,134.6c0.1,0.1,0.2,0.1,0.2,0.1l1.6-1.5c0.1-0.1,0.1-0.1,0-0.2
								c-0.1-0.1-0.2-0.1-0.2,0l-1.6,1.5C72.9,134.4,72.8,134.5,72.8,134.6L72.8,134.6z"/>
							<path class="st8" d="M74.8,134.4C74.8,134.4,74.8,134.4,74.8,134.4c-0.1,0.2-0.1,0.2-0.2,0.1l-1.8-1.1
								c-0.1,0-0.1-0.1-0.1-0.2c0-0.1,0.1-0.1,0.2-0.1l1.8,1.1C74.8,134.2,74.8,134.3,74.8,134.4z"/>
						</g>
						<g>
							<path class="st8" d="M74.5,140.7C74.5,140.7,74.5,140.8,74.5,140.7c0.1,0.1,0.2,0.1,0.2,0.1l1.6-1.5c0.1-0.1,0.1-0.1,0-0.2
								c-0.1-0.1-0.2-0.1-0.2,0l-1.6,1.5C74.5,140.6,74.5,140.6,74.5,140.7L74.5,140.7z"/>
							<path class="st8" d="M76.5,140.5C76.5,140.5,76.5,140.6,76.5,140.5c-0.1,0.2-0.1,0.2-0.2,0.1l-1.8-1.1
								c-0.1,0-0.1-0.1-0.1-0.2c0-0.1,0.1-0.1,0.2-0.1l1.8,1.1C76.4,140.4,76.5,140.5,76.5,140.5z"/>
						</g>
						<g>
							<path class="st8" d="M75.1,146.4C75.1,146.4,75.2,146.4,75.1,146.4c0.1,0.1,0.2,0.1,0.2,0.1l1.6-1.5c0.1-0.1,0.1-0.1,0-0.2
								c-0.1-0.1-0.2-0.1-0.2,0l-1.6,1.5C75.2,146.2,75.1,146.3,75.1,146.4L75.1,146.4z"/>
							<path class="st8" d="M77.2,146.2C77.2,146.2,77.2,146.2,77.2,146.2c-0.1,0.2-0.1,0.2-0.2,0.1l-1.8-1.1
								c-0.1,0-0.1-0.1-0.1-0.2c0-0.1,0.1-0.1,0.2-0.1l1.8,1.1C77.1,146.1,77.1,146.1,77.2,146.2z"/>
						</g>
						<path class="st8" d="M71.3,121.7c0.3-0.4,0.7-0.9,0.7-0.9c0.1-0.1,0.1-0.2,0-0.2s-0.2-0.1-0.2,0c0,0-0.8,1-1.1,1.3
							c-0.3-0.1-1.5-1.4-1.7-2.3c-0.1-0.2,0-0.4,0.1-0.4c0.1-0.1,0.1-0.2,0-0.2s-0.2-0.1-0.2,0c-0.1,0.1-0.3,0.3-0.2,0.7
							c0.1,0.9,1.4,2.5,2,2.7c0.2,0.1,0.3,0,0.3,0C70.9,122.1,71.1,121.9,71.3,121.7L71.3,121.7z"/>
						<path class="st8" d="M56.2,146.9C56.2,146.9,56.2,147,56.2,146.9c0,0.1,0.1,0.2,0.2,0.1l11.9-2c0.1,0,0.1-0.1,0.1-0.1
							c0-0.1-0.1-0.1-0.2-0.1l-11.9,2C56.2,146.8,56.2,146.9,56.2,146.9z"/>
						<path class="st8" d="M65.7,151.4C65.7,151.4,65.7,151.5,65.7,151.4c0,0.1,0.1,0.2,0.2,0.2l4.9-1c0.1,0,0.1-0.1,0.1-0.2
							c0-0.1-0.1-0.1-0.2-0.1l-4.9,1C65.7,151.4,65.7,151.4,65.7,151.4L65.7,151.4z"/>
						<path class="st8" d="M55.1,137.6c0,0,0.1,0,0.1-0.1c0-0.1,0-0.1,0-0.2c-1.2-1-0.5-2.7-0.3-3l3.4-0.2c0.7,0.8,0.5,3.2,0.5,3.2
							c0,0.1,0,0.1,0.1,0.2l0,0c0.1,0,0.1-0.1,0.2-0.1c0-0.1,0.3-2.6-0.6-3.5c0,0-0.1-0.1-0.1,0l-3.6,0.2c0,0-0.1,0-0.1,0.1
							C54.7,134.1,53.4,136.3,55.1,137.6C55,137.6,55.1,137.6,55.1,137.6L55.1,137.6z"/>
						<path class="st8" d="M55,145.9c0,0,0.1,0,0.1-0.1c0-0.1,0-0.1,0-0.2c-1.2-1-0.5-2.7-0.3-3l3.4-0.2c0.7,0.8,0.5,3.2,0.5,3.2
							c0,0.1,0,0.1,0.1,0.2l0,0c0.1,0,0.1-0.1,0.2-0.1c0-0.1,0.3-2.6-0.6-3.5c0,0-0.1-0.1-0.1,0l-3.6,0.2c0,0-0.1,0-0.1,0.1
							C54.6,142.4,53.4,144.7,55,145.9C55,145.9,55,145.9,55,145.9L55,145.9z"/>
						<path class="st8" d="M58.7,151.8c0,0,0.1,0,0.1-0.1c0-0.1,0-0.2,0-0.2c-1.4-0.8-0.9-2.6-0.7-3l3.3-0.7
							c0.8,0.7,0.9,3.1,0.9,3.1c0,0.1,0.1,0.2,0.2,0.2l0,0c0.1,0,0.1-0.1,0.1-0.1c0-0.1-0.1-2.6-1.1-3.4c0,0-0.1,0-0.1,0l-3.5,0.7
							c0,0-0.1,0-0.1,0.1C57.7,148.4,56.9,150.8,58.7,151.8C58.6,151.8,58.6,151.8,58.7,151.8L58.7,151.8z"/>
						<path class="st8" d="M64.3,158C64.3,158,64.4,158,64.3,158c0.1-0.2,0.1-0.2,0-0.2c-1.3-0.5-1.2-2.1-1.1-2.4l2.8-1.2
							c0.8,0.5,1.3,2.5,1.3,2.5c0,0.1,0.1,0.1,0.2,0.1l0,0c0.1,0,0.1-0.1,0.1-0.1c0-0.1-0.5-2.2-1.5-2.7c0,0-0.1,0-0.1,0l-2.9,1.2
							c0,0-0.1,0.1-0.1,0.1C63,155.3,62.6,157.4,64.3,158C64.2,158,64.3,158,64.3,158L64.3,158z"/>
					</g>
				</g>
				<g>
					<path class="st15" d="M495.3,375.3c0-2.9-2.4-5.3-5.3-5.3h-53.9c-2.9,0-5.3,2.4-5.3,5.3V391c0,5.1,1.2,10,3.4,14.3
						c19.7-6.3,40.8-8.7,61.1-15.9L495.3,375.3L495.3,375.3z"/>
					<path class="st15" d="M434.2,405.4c5.3,10.6,16.2,17.9,28.9,17.9c17.8,0,32.2-14.4,32.2-32.2v-1.6
						C475,396.7,453.9,399.1,434.2,405.4z"/>
					<ellipse class="st8" cx="464.1" cy="374" rx="28.4" ry="3"/>
					<path class="st16" d="M461.5,320.7c0.6-0.8,9.4-25.8-1.2-28c-10.6-2.2-15,6.8-16.6,18.6c-1.6,11.8,2.6,26.8,0.6,27.4
						s-4.8-7.2-10.2-3s-0.6,11.6,3.4,15.6c4,4,3.8,5.6,3,5.6s-5-2.4-7.4,1s-2.4,12,11.6,16.4c0,0,11.4,3,19.2-0.2
						S461.5,320.7,461.5,320.7L461.5,320.7z"/>
					<path class="st17" d="M463.9,374.9c1.6,0,12.3,1.1,16.8-1.3c4.5-2.4,16.6-19.8,12.8-24s-7.2-3.5-7.2-3.5s14.4-15.5,6.9-17.6
						c-7.5-2.1-9.9,1.6-9.9,1.6s10.4-32-5.6-31.2c-16,0.8-7.2,31-7.2,31s-2.7-12.3-11.2-10.1c-8.5,2.1-6.9,17.9-2.4,29.6
						c0,0-5.6-4.8-8.8,1.1C445,356.2,463.9,374.9,463.9,374.9L463.9,374.9z"/>
					<path class="st8" d="M474.1,365c-0.1,0-0.2,0-0.3-0.1c-0.2-0.2-0.2-0.5,0-0.6c0.1-0.1,7-8.1,5.1-12.8c-0.5-1.2-1.2-1.9-2.1-2.2
						c-2-0.6-4.6,1-4.6,1c-0.1,0.1-0.3,0.1-0.5,0s-0.2-0.3-0.2-0.4c0-0.1,2-14.2-1.4-21.8c-0.1-0.2,0-0.5,0.2-0.6
						c0.2-0.1,0.5,0,0.6,0.2c3,6.8,1.9,18.1,1.5,21.4c1-0.5,2.9-1.2,4.6-0.7c1.2,0.4,2.1,1.3,2.7,2.8c2.1,5.2-5,13.3-5.3,13.7
						C474.4,364.9,474.3,365,474.1,365L474.1,365z"/>
					<path class="st8" d="M458.3,369.6c-0.1,0-0.2,0-0.3-0.1c-0.5-0.6-13.2-13.9-10.2-19.4c0.8-1.5,2-2.5,3.5-2.9
						c2.9-0.8,5.8,0.9,5.9,0.9c0.2,0.1,0.3,0.4,0.2,0.6c-0.1,0.2-0.4,0.3-0.6,0.2c0,0-2.7-1.5-5.2-0.9c-1.2,0.3-2.2,1.2-2.9,2.5
						c-2.2,4,6.5,14.6,10.1,18.3c0.2,0.2,0.2,0.5,0,0.6C458.5,369.6,458.4,369.6,458.3,369.6L458.3,369.6z"/>
					<path class="st8" d="M478.1,325.8c-0.1,0-0.2,0-0.3-0.1c-0.2-0.1-0.2-0.4-0.1-0.6c0-0.1,4.5-5.8,3.7-8.8
						c-0.1-0.6-0.5-1-1.1-1.3c-0.9-0.4-1.7-0.4-2.5-0.1c-2.3,1-3.5,5-3.5,5c-0.1,0.2-0.3,0.4-0.6,0.3c-0.2-0.1-0.4-0.3-0.3-0.6
						c0-0.2,1.4-4.3,4-5.5c1-0.5,2.1-0.4,3.2,0.1c0.9,0.4,1.4,1,1.6,1.9c0.8,3.4-3.7,9.3-3.9,9.6
						C478.4,325.7,478.3,325.8,478.1,325.8L478.1,325.8z"/>
					<path class="st8" d="M445.1,348.4c-0.2,0-0.4-0.1-0.4-0.3c0-0.1-0.9-2.5,1.7-5.1c0.8-0.8,1.7-1.1,2.6-1.1
						c1.5,0.1,2.6,1.3,2.7,1.4c0.2,0.2,0.1,0.5,0,0.6c-0.2,0.2-0.5,0.1-0.6,0c0,0-0.9-1-2-1.1c-0.6,0-1.3,0.3-1.9,0.9
						c-2.1,2.1-1.5,4-1.5,4.1c0.1,0.2,0,0.5-0.3,0.6C445.2,348.4,445.1,348.4,445.1,348.4L445.1,348.4z"/>
					<path class="st17" d="M496.2,347.1c2.7,2.9,12.4-9.6,8-11C499.8,334.7,492.6,343.3,496.2,347.1z"/>
					<path class="st16" d="M433.4,318.3c-3.8,1.2,3.1,15.4,6.3,12.1C442.9,327,438.4,316.8,433.4,318.3z"/>
					<path class="st17" d="M491.6,316.7c2.1,1,2.8-2.8,1.6-3.2C492,313.1,490,315.9,491.6,316.7z"/>
					<path class="st16" d="M431.9,332.7c2.1,1,2.8-2.8,1.6-3.2C432.3,329.1,430.3,331.9,431.9,332.7z"/>
					<path class="st16" d="M469.3,294.9c3.8,0.4,2.6-9.6,0.4-9.6S465.3,294.5,469.3,294.9z"/>
					<path class="st16" d="M430.3,352.7c0,0-0.4-6.2-5.6-5.2s-1.4,12.6,2.8,11.8C431.7,358.5,430.2,352.7,430.3,352.7L430.3,352.7z"
						/>
					<path class="st2" d="M495.4,387c-0.5-0.1-1-0.1-1.4-0.2c-3.5-0.3-7.7,1-8.5,4.7c-0.3,1.4,0,2.7,0.3,3.9
						c0.1,0.3,0.1,0.6,0.2,0.9c0.2,1,0.1,1.9-0.3,2.2c-0.5,0.4-1.6-0.3-2.3-1.2c-0.3-0.4-0.6-0.9-0.9-1.4c-0.6-1.1-1.3-2.4-2.5-3.3
						c-1.4-1.1-3.4-1.4-5.3-0.7c-1.9,0.6-3.3,2-3.8,3.8c-0.1,0.5-0.2,1-0.3,1.5c0,0.3-0.1,0.7-0.2,1c-0.3,1.1-1.4,2-2.6,2
						c-1.1,0-2.4-0.7-2.8-1.8c-0.2-0.6-0.3-1.2-0.3-2c-0.1-0.8-0.2-1.8-0.5-2.7c-0.7-1.8-2.3-3.2-4.4-3.8c-2.1-0.5-4.2,0-5.6,1.3
						c-1.1,1-1.7,2.2-2.2,3.3c-0.2,0.4-0.4,0.9-0.7,1.3c-0.5,0.9-1.5,1.8-2.2,1.6c-0.8-0.2-1.3-1.7-1.8-3l-0.1-0.3
						c-0.8-2.2-1.8-3.8-3.2-4.8c-2-1.4-4.7-1.5-6.5-0.1c-0.6,0.5-1,1.1-1.4,1.6c-0.1,0.2-0.3,0.4-0.5,0.6c-0.8,1-2.2,1.5-3.8,1.3
						c-0.4,0-0.7-0.1-1-0.2v1.2c0,0.7,0.1,1.4,0.1,2.1c0.2,0,0.3,0.1,0.5,0.1c2.6,0.3,5.1-0.6,6.7-2.4c0.2-0.2,0.4-0.5,0.6-0.8
						c0.3-0.4,0.5-0.7,0.8-0.9c0.7-0.5,1.9-0.3,2.6,0.2c0.9,0.6,1.5,1.7,2.1,3.2l0.1,0.3c0.6,1.9,1.5,4.4,4,5
						c2.5,0.6,4.7-1.3,5.8-3.1c0.3-0.5,0.5-1,0.8-1.5c0.5-0.9,0.9-1.8,1.5-2.4c0.6-0.6,1.7-0.8,2.7-0.5c1,0.3,1.9,0.9,2.1,1.7
						c0.2,0.5,0.3,1.2,0.3,1.9c0.1,0.9,0.2,1.9,0.5,2.9c0.9,2.3,3.2,3.9,5.6,3.9c0.1,0,0.2,0,0.3,0c2.5-0.1,4.8-2,5.5-4.4
						c0.1-0.5,0.2-1,0.3-1.5c0-0.4,0.1-0.7,0.2-1c0.2-0.7,0.9-1.3,1.8-1.6c0.9-0.3,1.8-0.2,2.4,0.3c0.7,0.5,1.2,1.4,1.7,2.3
						c0.3,0.6,0.6,1.1,1,1.7c1.5,2.2,4.5,3.5,6.7,2c1.5-1,2.1-3.1,1.6-5.5c-0.1-0.3-0.2-0.7-0.2-1c-0.2-0.9-0.4-1.7-0.3-2.4
						c0.4-1.6,2.9-2.3,5-2.1c0.6,0,1.1,0.1,1.7,0.2L495.4,387L495.4,387z"/>
				</g>
				<g>
					<path class="st11" d="M315.4,29.5L315.4,29.5c11.6,7.5,25,11.7,38.8,12.2L365,42v64.3c0,14.8-8.6,28.8-23.6,38.4l-26,16.6
						l-26-16.6c-15-9.6-23.6-23.6-23.6-38.4V42l10.8-0.4C290.4,41.1,303.8,36.9,315.4,29.5L315.4,29.5z"/>
					<g class="st5">
						<path class="st11" d="M315.4,47.2L315.4,47.2c8.7,5.6,18.7,8.8,29,9.1l8.1,0.3v48.1c0,11.1-6.5,21.5-17.7,28.7l-19.4,12.4
							l-19.4-12.4c-11.2-7.2-17.7-17.7-17.7-28.7V56.6l8.1-0.3C296.7,55.9,306.7,52.8,315.4,47.2L315.4,47.2z"/>
					</g>
					<g>
						<path class="st2" d="M332.4,93.7h-36.1V70c0-6,4.9-11,11-11h14.2c6,0,11,4.9,11,11L332.4,93.7L332.4,93.7z M301.2,88.8h26.3
							V70c0-3.3-2.7-6-6.1-6h-14.2c-3.3,0-6.1,2.7-6.1,6L301.2,88.8L301.2,88.8z"/>
						<path class="st2" d="M335.3,83.5h-41.6c-0.7,0-1.2,0.6-1.2,1.2v36.2c0,2.1,1.7,3.8,3.8,3.8h36.4c2.1,0,3.8-1.7,3.8-3.8V84.7
							C336.5,84,336,83.5,335.3,83.5z"/>
						<path class="st11" d="M319.2,114.4l-2.9-14.7c1.1-0.7,1.8-1.8,1.8-3.2c0-2.1-1.7-3.7-3.7-3.7s-3.7,1.7-3.7,3.7
							c0,1.4,0.7,2.6,1.8,3.2l-2.9,14.7H319.2L319.2,114.4z"/>
					</g>
				</g>
				<g>
					<rect x="143.4" y="66.6" class="st4" width="29.1" height="29.7"/>
					<path class="st18" d="M246.4,77.1h-63.7c-1.6,0-3-1.3-3-3s1.3-3,3-3h63.7c1.6,0,3,1.3,3,3S248,77.1,246.4,77.1z"/>
					<path class="st18" d="M221.3,91.9h-38.7c-1.6,0-3-1.3-3-3s1.3-3,3-3h38.6c1.6,0,3,1.3,3,3S223,91.9,221.3,91.9L221.3,91.9z"/>
					<rect x="143.4" y="17" class="st4" width="29.1" height="29.6"/>
					<path class="st2" d="M155.8,41.3c-0.5,0-0.9-0.2-1.2-0.5l-6.9-7.1c-0.7-0.7-0.7-1.8,0-2.5s1.8-0.7,2.5,0l5.6,5.7l11.8-14
						c0.6-0.7,1.7-0.8,2.4-0.2c0.7,0.6,0.8,1.8,0.2,2.5l-13,15.5C156.8,41.1,156.3,41.3,155.8,41.3
						C155.8,41.3,155.8,41.3,155.8,41.3z"/>
					<path class="st18" d="M246.4,27.5h-63.7c-1.6,0-3-1.3-3-3s1.3-3,3-3h63.7c1.6,0,3,1.3,3,3S248,27.5,246.4,27.5z"/>
					<path class="st18" d="M221.3,42.3h-38.6c-1.6,0-3-1.3-3-3s1.3-3,3-3h38.6c1.6,0,3,1.3,3,3S223,42.3,221.3,42.3z"/>
					<path class="st2" d="M155.8,91.8c-0.5,0-0.9-0.2-1.2-0.5l-6.9-7.1c-0.7-0.7-0.7-1.8,0-2.5s1.8-0.7,2.5,0l5.6,5.7l11.8-14
						c0.6-0.7,1.7-0.8,2.4-0.2s0.8,1.8,0.2,2.5l-13,15.5C156.8,91.5,156.3,91.7,155.8,91.8C155.8,91.8,155.8,91.8,155.8,91.8z"/>
				</g>
				<path class="st4" d="M434.4,59.2l13.3-4.5l-13.5-4.3c-4-1-7.1-4.1-8.1-8.2l-4.6-20L417.3,42c-0.9,4.2-4.1,7.4-8.2,8.4l-12.5,4.6
					l12.2,4.1c4.3,0.9,7.6,4.3,8.5,8.6l3.9,19.3l4.8-19.5C426.9,63.2,430.2,60,434.4,59.2L434.4,59.2z"/>
				<path class="st2" d="M27.9,42.9l7.2-2.4l-7.3-2.3c-2.2-0.5-3.9-2.2-4.4-4.5l-2.5-10.9l-2.3,10.7c-0.5,2.3-2.2,4-4.5,4.6
					l-6.8,2.5l6.7,2.2c2.3,0.5,4.1,2.3,4.6,4.7l2.1,10.5l2.6-10.6C23.8,45,25.6,43.3,27.9,42.9L27.9,42.9z"/>
				<path class="st10" d="M216.3,397l9-3l-9.1-2.9c-2.7-0.7-4.9-2.8-5.5-5.5l-3.1-13.6l-2.9,13.4c-0.6,2.8-2.8,5-5.6,5.7l-8.5,3.1
					l8.3,2.8c2.9,0.6,5.2,2.9,5.7,5.8l2.6,13.1l3.2-13.3C211.2,399.7,213.5,397.5,216.3,397L216.3,397z"/>
				<g>
					<path class="st2" d="M274.5,424H207c-0.7,0-1.2-0.5-1.2-1.2s0.6-1.2,1.2-1.2h67.5c0.7,0,1.2,0.5,1.2,1.2S275.2,424,274.5,424z"
						/>
					<path class="st2" d="M196.4,424L196.4,424L1.2,424c-0.7,0-1.2-0.5-1.2-1.2s0.6-1.2,1.2-1.2l0,0l195.1,0c0.7,0,1.2,0.5,1.2,1.2
						S197,424,196.4,424z"/>
					<path class="st2" d="M506.3,424H303.1c-0.7,0-1.2-0.5-1.2-1.2s0.5-1.2,1.2-1.2h203.1c0.7,0,1.2,0.5,1.2,1.2
						S506.9,424,506.3,424z"/>
				</g>
			</g>
		</g>
	</g>
</g>
</svg>
