<?xml version="1.0" encoding="utf-8"?>
<!-- Generator: Adobe Illustrator 27.2.0, SVG Export Plug-In . SVG Version: 6.00 Build 0)  -->
<svg version="1.1" id="Layer_1" xmlns="http://www.w3.org/2000/svg" xmlns:xlink="http://www.w3.org/1999/xlink" x="0px" y="0px"
	 viewBox="0 0 1198 803" style="enable-background:new 0 0 1198 803;" xml:space="preserve">
<style type="text/css">
	.st0{display:none;fill-rule:evenodd;clip-rule:evenodd;fill:#0A3871;}
	.st1{fill:#52D3D8;}
	.st2{fill-rule:evenodd;clip-rule:evenodd;fill:#52D3D8;}
</style>
<path class="st0" d="M63.2,23.7c0,0.3-0.1,0.5-0.3,0.8c-0.2,0.2-0.4,0.4-0.6,0.6c-0.5,0.3-0.9,0.5-1.4,0.6C60,26,59,26.3,58,26.7
	c-1.1,0.4-2.1,0.7-2.9,1C54,28.1,53,28.4,52,28.8c-0.7,0.3-1.4,0.7-2.1,1.2c-0.6,0.5-1.1,1.1-1.5,1.8c-0.4,0.7-0.7,1.7-0.7,2.8
	c0,2.2,0.5,4,1.6,5c1.1,1.1,3.1,1.7,6.1,1.7c3.1,0,5.1-0.6,6.2-1.8c1.1-1.2,1.6-2.8,1.6-5L63.2,23.7L63.2,23.7z M55.4,0
	c5.3,0,9.3,1,11.8,3.1c2.5,2,3.8,4.6,3.8,7.7v26.4c0,1.1-0.2,2.2-0.6,3.5s-1.1,2.5-2.3,3.5c-1.1,1.1-2.7,2-4.7,2.7
	c-2,0.7-4.6,1.1-7.9,1.1c-3.2,0-5.8-0.4-7.9-1.1c-2-0.7-3.6-1.6-4.7-2.7c-1.1-1-1.9-2.2-2.3-3.5c-0.4-1.3-0.6-2.5-0.6-3.5V33
	c0-2.2,0.6-4.3,1.8-6.1c1.2-1.9,2.9-3.1,5.1-3.9c1.1-0.4,2.3-0.7,3.8-1.2c1.4-0.5,2.7-1,4-1.4s2.5-0.9,3.4-1.2
	c0.6-0.2,1.2-0.4,1.8-0.6l1-0.5c0.4-0.2,0.8-0.5,1.1-1c0.4-0.4,0.7-0.9,1-1.4c0.3-0.6,0.4-1.2,0.4-1.9V12c0-0.6-0.1-1.2-0.4-1.8
	c-0.2-0.6-0.7-1.2-1.3-1.8c-0.6-0.5-1.4-1-2.4-1.3S57,6.6,55.5,6.6c-3.1,0-5.1,0.6-6.2,1.8c-0.9,1.1-1.5,2.4-1.6,3.9
	c0,0.3-0.3,0.5-0.6,0.5L40.5,13c-0.2,0-0.3-0.1-0.4-0.2c-0.1-0.1-0.2-0.3-0.2-0.4v-1.5c0-1.5,0.3-2.9,0.9-4.2
	c0.6-1.3,1.5-2.5,2.8-3.4c1.3-1,2.9-1.8,4.9-2.3C50.3,0.3,52.7,0,55.4,0L55.4,0z"/>
<g>
	<path class="st1" d="M1198,53.8c0,10.1-8.5,18.3-18.3,18.3c-10.1,0-18.3-8.5-18.3-18.3s8.5-18.3,18.3-18.3
		C1189.8,35.5,1198,43.7,1198,53.8"/>
	<path class="st1" d="M1116.3,143.8c0,10.1-8.5,18.3-18.3,18.3c-10.1,0-18.3-8.5-18.3-18.3c0-10.1,8.5-18.3,18.3-18.3
		C1108.1,125.5,1116.3,133.9,1116.3,143.8"/>
	<path class="st1" d="M577.4,803c-45.1,0-65.1-31.7-68.4-38.3c-21.6-28.4-48.4-43.5-81.8-43.5l0,0c-4.9,0-10.1-4.9-10.1-10.1
		c0-5.2,4.9-10.1,10.1-10.1l0,0c39.9,0,71.7,16.7,98.5,51.7l1.6,1.6c0,1.6,15,28.4,51.7,28.4c11.8,0,35-3.3,55-30.1
		c1.6-1.6,38.3-51.7,96.8-51.7l0,0c4.9,0,10.1,4.9,10.1,10.1c0,5.2-4.9,10.1-10.1,10.1l0,0c-48.4,0-80.1,43.5-81.8,43.5
		C620.6,798.1,592.5,803,577.4,803z"/>
	<path class="st1" d="M425.6,763c-1.6,0-3.3,0-4.9-1.6s-30.1-21.6-31.7-55c-1.6-23.2,8.5-46.8,31.7-68.4c3.3-3.3,10.1-3.3,13.4,0
		c3.3,3.3,3.3,10.1,0,13.4c-18.3,18.3-26.8,36.7-25.2,53.3c1.6,25.2,23.2,39.9,25.2,39.9c4.9,3.3,4.9,8.5,1.6,13.4
		C432.2,761.4,428.9,763,425.6,763z"/>
	<path class="st1" d="M732.5,763c-3.3,0-6.6-1.6-8.5-3.3c-3.3-4.9-1.6-10.1,1.6-13.4c0,0,21.6-16.7,25.2-39.9
		c1.6-16.7-6.6-35-25.2-53.3c-3.3-3.3-3.3-10.1,0-13.4s10.1-3.3,13.4,0c23.2,23.2,33.4,46.8,31.7,68.4c-3.3,33.4-31.7,53.3-31.7,55
		C737.4,763,734.1,763,732.5,763z"/>
	<g>
		<g>
			<g>
				<g>
					<path class="st2" d="M719.1,220.6C667.4,234,620.6,258.9,564,254c-51.7-4.9-101.8-28.4-155.1-39.9
						c-130.2-28.4-282-13.4-408.9,6.6c0,23.2,3.3,43.5,4.9,63.5c48.4,20,43.5,101.8,55,150.2c8.5,33.4,21.6,68.4,46.8,95.2
						c53.3,55,188.5,66.7,275.4,31.7c78.5-31.7,108.6-90,138.4-173.4c8.5-23.2,20-60.2,36.7-66.7c61.8-26.8,75.2,55,86.7,90
						c38.3,101.8,100.1,163.6,227,171.8c118.4,6.6,190.1-38.3,218.5-118.4c16.7-45.1,8.5-106.7,31.7-146.9
						c8.5-15,18.3-18.3,31.7-31.7c1.6-21.6,1.6-36.7,4.9-61.8C1004.7,195.5,856.1,185.6,719.1,220.6z M26.8,257.3
						c6.6-15,41.8-13.4,56.6-6.6C76.9,264.1,41.8,264.1,26.8,257.3z M474,392.4c-15,66.7-39.9,111.9-96.8,140
						c-96.8,48.4-213.6,25.2-260.4-46.8c-25.2-39.9-51.7-133.5-25.2-190.1c21.6-48.4,80.1-61.8,158.6-65.1
						c96.8-4.9,208.7,15,230.3,78.5C488.8,337.4,478.9,369.2,474,392.4z M1043,486c-43.5,66.7-155.1,96.8-256.8,48.4
						c-58.5-28.4-88.6-80.1-103.7-151.8C654,252.4,755.8,235.7,881,229.1c76.9-3.3,150.2,11.8,178.6,51.7
						C1094.6,330.9,1071.4,439.2,1043,486z M1074.7,252.4c11.8-10.1,51.7-8.5,56.6,4.9C1116.3,264.1,1084.5,262.5,1074.7,252.4z"/>
				</g>
			</g>
			<g>
				<path class="st1" d="M120.1,305.7c-1.6,0-1.6,0-3.3-1.6c0-1.6,0-4.9,1.6-4.9c33.4-30.1,93.5-43.5,136.8-39.9
					c1.6,0,3.3,1.6,3.3,3.3c0,1.6-1.6,3.3-3.3,3.3c-41.8-1.6-100.1,10.1-131.8,38.3C121.7,304.1,121.7,305.7,120.1,305.7z"/>
			</g>
			<g>
				<path class="st1" d="M719.1,300.8c-1.6,0-1.6,0-3.3-1.6s-1.6-3.3,0-4.9c23.2-23.2,55-35,91.9-35l0,0c1.6,0,3.3,1.6,3.3,3.3
					s-1.6,3.3-3.3,3.3l0,0c-33.4,0-65.1,11.8-86.7,31.7C720.7,300.8,719.1,300.8,719.1,300.8z"/>
			</g>
		</g>
	</g>
	<g>
		<path class="st1" d="M642.5,98.9c0,0,1.6-1.6,4.9-4.9s8.5-6.6,15-11.8c13.4-8.5,33.4-21.6,58.5-33.4c11.8-6.6,26.8-11.8,39.9-18.3
			c15-4.9,30.1-11.8,46.8-15c8.5-1.6,16.7-3.3,25.2-6.6c8.5-1.6,18.3-3.3,26.8-4.9c4.9,0,8.5-1.6,13.4-1.6c4.9,0,8.5,0,13.4-1.6
			c10.1-1.6,18.3,0,28.4,0c10.1,0,18.3,0,28.4,1.6c8.5,1.6,18.3,1.6,26.8,3.3c8.5,1.6,18.3,3.3,26.8,4.9c4.9,1.6,8.5,1.6,13.4,3.3
			c4.9,1.6,8.5,3.3,11.8,3.3c3.3,1.6,8.5,3.3,11.8,4.9c3.3,1.6,8.5,3.3,11.8,4.9c3.3,1.6,8.5,3.3,11.8,4.9c3.3,1.6,6.6,3.3,10.1,4.9
			c15,6.6,26.8,15,38.3,21.6c4.9,3.3,11.8,8.5,16.7,11.8c3.3,1.6,4.9,3.3,6.6,4.9c1.6,1.6,4.9,3.3,6.6,4.9
			c8.5,6.6,16.7,13.4,21.6,18.3c11.8,11.8,18.3,16.7,18.3,16.7c4.9,4.9,4.9,11.8,0,16.7c-4.9,4.9-11.8,4.9-15,0l0,0
			c0,0-6.6-4.9-18.3-16.7c-4.9-4.9-13.4-10.1-21.6-16.7c1.6,3.3-1.6,1.6-3.3,0c-1.6-1.6-4.9-3.3-6.6-4.9c-4.9-3.3-10.1-6.6-15-10.1
			c-11.8-6.6-23.2-13.4-36.7-20c-3.3-1.6-6.6-3.3-10.1-4.9c-3.3-1.6-6.6-3.3-10.1-4.9c-3.3-1.6-6.6-3.3-11.8-4.9
			c-3.3-1.6-8.5-1.6-11.8-3.3c-3.3-1.6-8.5-1.6-11.8-3.3c-3.3-1.6-8.5-1.6-11.8-3.3c-8.5-1.6-16.7-3.3-25.2-4.9
			c-8.5-1.6-16.7-1.6-25.2-3.3c-8.5,0-16.7,0-25.2,0s-16.7,0-25.2,1.6l-13.4,1.6c-4.9,0-8.5,1.6-11.8,1.6
			c-8.5,1.6-16.7,3.3-25.2,4.9s-16.7,3.3-23.2,6.6c-15,4.9-30.1,10.1-43.5,15c-13.4,6.6-26.8,11.8-38.3,18.3
			c-23.2,11.8-39.9,23.2-53.3,31.7c-6.6,4.9-10.1,8.5-13.4,10.1c-3.3,1.6-4.9,3.3-4.9,3.3l0,0c-8.5,6.6-18.3,4.9-25.2-3.3
			C632.4,115.6,634,105.5,642.5,98.9L642.5,98.9z"/>
	</g>
	<g>
		<path class="st1" d="M502.2,173.9c0,0-1.6,0-4.9-1.6c-3.3-1.6-8.5-1.6-15-3.3c-13.4-3.3-31.7-6.6-53.3-11.8
			c-11.8,0-23.2-3.3-36.7-4.9c-13.4-1.6-26.8-3.3-39.9-4.9c-13.4-1.6-28.4-3.3-43.5-4.9s-30.1-1.6-45.1-3.3c-15,0-30.1-1.6-45.1,0
			c-6.6,0-15,0-21.6,0c-3.3,0-6.6,0-10.1,0c-3.3,0-6.6,0-10.1,1.6c-6.6,0-13.4,1.6-20,1.6c-3.3,0-6.6,0-10.1,0
			c-3.3,0-6.6,1.6-10.1,1.6c-13.4,3.3-25.2,4.9-36.7,6.6c-10.1,1.6-21.6,4.9-30.1,6.6c-8.5,1.6-16.7,4.9-23.2,6.6
			c-11.8,3.3-18.3,4.9-18.3,4.9h-1.4c-6.6,1.6-11.8-1.6-13.4-8.5c-1.6-4.6,1.6-9.6,6.6-12.9c0,0,6.6-1.6,20-6.6
			c6.6-1.6,15-4.9,23.2-6.6c10.1-1.6,20-4.9,31.7-6.6c11.8-3.3,25.2-4.9,38.3-6.6c1.6,0,4.9-1.6,10.1-1.6c3.3,0,6.6,0,10.1-1.6
			c6.6,0,13.4-1.6,21.6-1.6c3.3,0,6.6,0,11.8-1.6c3.3,0,6.6,0,11.8,0c6.6,0,15,0,23.2-1.6c15,0,30.1,0,46.8,0
			c15,0,31.7,1.6,46.8,1.6c15,1.6,30.1,1.6,45.1,3.3c10.1,1.6,23.2,3.3,36.7,4.9s25.2,3.3,36.7,4.9c23.2,3.3,41.8,6.6,55,10.1
			c6.6,1.6,11.8,3.3,15,3.3c3.3,1.6,4.9,1.6,4.9,1.6c8.5,1.6,13.4,11.8,11.8,20C520.5,170.6,510.7,177.2,502.2,173.9L502.2,173.9
			L502.2,173.9z"/>
	</g>
</g>
</svg>
