<?xml version="1.0" encoding="utf-8"?>
<!-- Generator: Adobe Illustrator 27.2.0, SVG Export Plug-In . SVG Version: 6.00 Build 0)  -->
<svg version="1.1" id="Layer_1" xmlns="http://www.w3.org/2000/svg" xmlns:xlink="http://www.w3.org/1999/xlink" x="0px" y="0px"
	 viewBox="0 0 16 16" style="enable-background:new 0 0 16 16;" xml:space="preserve">
<style type="text/css">
	.st0{fill:#FFFFFF;}
</style>
<path class="st0" d="M16,8c0,2.1-0.8,4.2-2.2,5.8S10.1,16,8,16s-4.2-0.8-5.8-2.2S0,10.1,0,8s0.8-4.2,2.2-5.8S5.9,0,8,0
	s4.2,0.8,5.8,2.2S16,5.9,16,8z M8,1.8c-0.2,0-0.5,0-0.5,0.2C7.2,1.9,7,2.1,6.9,2.1C6.7,2.2,6.7,2.4,6.7,2.7C6.6,2.9,6.6,3,6.6,3.2
	L7,8.8C7,9,7.2,9.3,7.4,9.3C7.5,9.6,7.8,9.6,8,9.6s0.5-0.2,0.5-0.2C8.6,9.3,8.6,9.1,8.8,9l0.6-5.8c0-0.2,0-0.5-0.2-0.5
	C9.2,2.5,9,2.2,9,2.2c0-0.1-0.2-0.3-0.5-0.4C8.5,1.8,8.2,1.8,8,1.8z M8,11.2c-0.5,0-0.8,0.2-1.1,0.5c-0.3,0.3-0.5,0.6-0.5,1.1
	s0.2,0.8,0.5,1.1s0.6,0.5,1.1,0.5s0.8-0.2,1.1-0.5s0.5-0.8,0.5-1.1S9.4,12,9.1,11.7S8.5,11.2,8,11.2z"/>
</svg>
